<svg width="16" height="16" viewBox="0 0 16 16" fill="none" xmlns="http://www.w3.org/2000/svg">
<rect x="0.5" y="0.5" width="15" height="15" rx="3.5" stroke="#AEB9CA"/>
<path d="M5.51709 11C5.47021 10.9062 5.43213 10.7393 5.40283 10.499C5.0249 10.8916 4.57373 11.0879 4.04932 11.0879C3.58057 11.0879 3.19531 10.9561 2.89355 10.6924C2.59473 10.4258 2.44531 10.0889 2.44531 9.68164C2.44531 9.18652 2.63281 8.80273 3.00781 8.53027C3.38574 8.25488 3.91602 8.11719 4.59863 8.11719H5.38965V7.74365C5.38965 7.45947 5.30469 7.23389 5.13477 7.06689C4.96484 6.89697 4.71436 6.81201 4.3833 6.81201C4.09326 6.81201 3.8501 6.88525 3.65381 7.03174C3.45752 7.17822 3.35938 7.35547 3.35938 7.56348H2.54199C2.54199 7.32617 2.62549 7.09766 2.79248 6.87793C2.9624 6.65527 3.19092 6.47949 3.47803 6.35059C3.76807 6.22168 4.08594 6.15723 4.43164 6.15723C4.97949 6.15723 5.40869 6.29492 5.71924 6.57031C6.02979 6.84277 6.19092 7.21924 6.20264 7.69971V9.88818C6.20264 10.3247 6.2583 10.6719 6.36963 10.9297V11H5.51709ZM4.16797 10.3804C4.42285 10.3804 4.66455 10.3145 4.89307 10.1826C5.12158 10.0508 5.28711 9.87939 5.38965 9.66846V8.69287H4.75244C3.75635 8.69287 3.2583 8.98438 3.2583 9.56738C3.2583 9.82227 3.34326 10.0215 3.51318 10.165C3.68311 10.3086 3.90137 10.3804 4.16797 10.3804ZM9.56445 6.51758C10.1621 6.51758 10.6396 6.71826 10.9971 7.11963C11.3574 7.51807 11.5376 8.04395 11.5376 8.69727V8.77197C11.5376 9.22021 11.4512 9.62158 11.2783 9.97607C11.1055 10.3276 10.8564 10.6016 10.5312 10.7979C10.209 10.9912 9.83691 11.0879 9.41504 11.0879C8.77637 11.0879 8.26221 10.8755 7.87256 10.4507C7.48291 10.0229 7.28809 9.4502 7.28809 8.73242V8.33691C7.28809 7.33789 7.47266 6.54395 7.8418 5.95508C8.21387 5.36621 8.76172 5.00732 9.48535 4.87842C9.89551 4.80518 10.1724 4.71582 10.3159 4.61035C10.4595 4.50488 10.5312 4.35986 10.5312 4.17529H11.1992C11.1992 4.5415 11.1157 4.82715 10.9487 5.03223C10.7847 5.2373 10.521 5.38232 10.1577 5.46729L9.55127 5.60352C9.06787 5.71777 8.70459 5.91113 8.46143 6.18359C8.22119 6.45312 8.06445 6.81348 7.99121 7.26465C8.42188 6.7666 8.94629 6.51758 9.56445 6.51758ZM9.40625 7.18555C9.00781 7.18555 8.69141 7.32031 8.45703 7.58984C8.22266 7.85645 8.10547 8.22705 8.10547 8.70166V8.77197C8.10547 9.28174 8.22266 9.68604 8.45703 9.98486C8.69434 10.2808 9.01367 10.4287 9.41504 10.4287C9.81934 10.4287 10.1387 10.2793 10.373 9.98047C10.6074 9.68164 10.7246 9.24512 10.7246 8.6709C10.7246 8.22266 10.606 7.86377 10.3687 7.59424C10.1343 7.32178 9.81348 7.18555 9.40625 7.18555ZM13.2603 12.1865H12.6055V4.60156H13.2603V12.1865Z" fill="black"/>
</svg>
