<svg width="16" height="16" viewBox="0 0 16 16" fill="none" xmlns="http://www.w3.org/2000/svg">
<rect x="0.5" y="0.5" width="15" height="15" rx="3.5" fill="#EBF2FB" stroke="#AEB9CA"/>
<path d="M9.73196 8.7826L6.01462 12.5C6.01462 12.5 5.86628 14.1721 6.51455 15C7.11645 15.7687 13 15.5 13 15.5L15 13.5L11.214 8.8577C10.8397 8.39872 10.1507 8.36381 9.73196 8.7826Z" fill="#5181B8"/>
<path d="M4.72108 7.77885L1 11.5C1 11.5 0.851655 13.1721 1.49993 14C2.10183 14.7687 3.49993 15.5 3.49993 15.5H12.4999L6.20013 7.85025C5.82484 7.39454 5.13852 7.36141 4.72108 7.77885Z" fill="#4A90E2"/>
<rect x="0.5" y="0.5" width="15" height="15" rx="3.5" stroke="#AEB9CA"/>
<circle cx="11.5" cy="4.5" r="1.8" fill="#FFE99D" stroke="#FFC850" stroke-width="0.6"/>
</svg>
