<svg width="35" height="35" viewBox="0 0 35 35" fill="none" xmlns="http://www.w3.org/2000/svg">
<circle cx="17.5" cy="17.5" r="17.5" fill="white"/>
<path fill-rule="evenodd" clip-rule="evenodd" d="M13.1 11L15.3 11C15.9075 11 16.4 11.485 16.4 12.0833L16.4 22.9167C16.4 23.515 15.9075 24 15.3 24L13.1 24C12.4925 24 12 23.515 12 22.9167L12 12.0833C12 11.485 12.4925 11 13.1 11ZM19.7 11L21.9 11C22.5075 11 23 11.485 23 12.0833L23 22.9167C23 23.515 22.5075 24 21.9 24L19.7 24C19.0925 24 18.6 23.515 18.6 22.9167L18.6 12.0833C18.6 11.485 19.0925 11 19.7 11Z" fill="#121212"/>
</svg>
