<svg width="17" height="20" viewBox="0 0 17 20" fill="none" xmlns="http://www.w3.org/2000/svg">
<path d="M8.40708 3.18562H8.49535L6.82045 1.51071C6.47485 1.16512 6.47485 0.604794 6.82045 0.259198C7.16604 -0.0863992 7.72637 -0.0863992 8.07196 0.259198L11.2008 3.38799C11.2355 3.42274 11.2668 3.45966 11.2945 3.49831C11.4254 3.6526 11.5044 3.85236 11.5044 4.07057C11.5044 4.32622 11.396 4.55655 11.2227 4.7181C11.2155 4.72577 11.2082 4.73334 11.2008 4.7408L8.07196 7.86959C7.72637 8.21519 7.16604 8.21519 6.82045 7.86959C6.47485 7.524 6.47485 6.96367 6.82045 6.61808L8.483 4.95553H8.40708C4.74147 4.95575 1.76991 7.92731 1.76991 11.5929C1.76991 15.2585 4.74147 18.2301 8.40708 18.2301C11.6171 18.2301 14.2949 15.9513 14.9109 12.9231C14.9395 12.7826 14.9648 12.6044 14.9867 12.3885C15.0325 11.9367 15.413 11.5929 15.8671 11.5929L15.9292 11.5929C15.9541 11.5929 15.9791 11.594 16.0039 11.5963C16.4612 11.6375 16.7985 12.0417 16.7572 12.499L16.7572 12.499C16.7382 12.7103 16.7164 12.8869 16.6921 13.0286C16.0108 16.9878 12.5607 20 8.40708 20C3.76398 20 0 16.236 0 11.5929C0 6.94982 3.76398 3.18584 8.40708 3.18584V3.18562Z" fill="white"/>
</svg>
