<svg width="24" height="24" viewBox="0 0 24 24" fill="none" xmlns="http://www.w3.org/2000/svg">
<path d="M12.5992 12L16.9246 7.67466C17.0899 7.50879 17.0902 7.24026 16.9246 7.07466C16.7582 6.90879 16.4899 6.90879 16.324 7.07466L11.999 11.3997L7.67362 7.07466C7.50855 6.90879 7.23922 6.90879 7.07362 7.07466C6.90775 7.24026 6.90775 7.50879 7.07362 7.67466L11.3987 12L7.07389 16.3248C6.90802 16.4907 6.90802 16.7592 7.07389 16.9253C7.15682 17.008 7.26535 17.0499 7.37389 17.0496C7.48269 17.0499 7.59122 17.008 7.67389 16.9253L11.999 12.6003L16.324 16.9253C16.407 17.008 16.5158 17.0499 16.6243 17.0499C16.7326 17.0499 16.8414 17.008 16.9246 16.9253C17.0902 16.7592 17.0902 16.4907 16.9243 16.3248L12.5992 12Z" fill="black"/>
<path fill-rule="evenodd" clip-rule="evenodd" d="M0 12C0 5.38347 5.38347 0 12 0C18.6168 0 24 5.38347 24 12C24 18.6165 18.6168 24 12 24C5.38347 24 0 18.6168 0 12ZM0.849265 11.9999C0.849265 18.1485 5.85167 23.1509 12.0002 23.1509C18.149 23.1509 23.1511 18.1485 23.1511 12.0002C23.1511 5.85115 18.149 0.848748 12.0002 0.848748C5.8514 0.848748 0.849265 5.85088 0.849265 11.9999Z" fill="black"/>
</svg>
