<svg width="16" height="14" viewBox="0 0 16 14" fill="none" xmlns="http://www.w3.org/2000/svg">
<path d="M5.83556 12.5482C6.43667 12.9711 7.48797 13.621 7.53246 13.6487C7.6623 13.7289 7.82854 13.773 8.00011 13.773C8.1721 13.773 8.33812 13.7289 8.46712 13.6487C8.5116 13.621 9.56312 12.9711 10.1644 12.5482C14.6183 9.41768 16.7177 5.77951 15.7805 2.81653C15.2477 1.13176 13.7645 0 12.0897 0C11.0252 0 9.95159 0.411667 9.14379 1.12921C8.53289 1.67178 8.11931 2.53003 8.00032 2.79716C7.89197 2.55429 7.47541 1.67923 6.85642 1.12921C6.04841 0.411454 4.97433 0 3.91004 0C2.23549 0 0.752301 1.13176 0.219518 2.81632C-0.717695 5.7793 1.38172 9.41768 5.83556 12.5482Z" fill="#DA291C"/>
</svg>
