<svg width="49" height="48" viewBox="0 0 49 48" fill="none" xmlns="http://www.w3.org/2000/svg">
<path d="M1.9222 29.692L3.62301 23.7422L8.04163 28.3173L2.20737 29.9775C2.03325 30.0271 1.87244 29.8661 1.9222 29.692Z" fill="#F2EDDA"/>
<circle cx="15.9489" cy="15.9489" r="14.9489" fill="#F2EDDA"/>
<path d="M9.53662 9.13867H22.2236" stroke="#51565F" stroke-width="0.766007" stroke-linecap="round"/>
<path d="M9.53662 15.3633H22.2236" stroke="#51565F" stroke-width="0.766007" stroke-linecap="round"/>
<path d="M9.53662 21.5879H17.6754" stroke="#51565F" stroke-width="0.766007" stroke-linecap="round"/>
<path d="M26.2792 5.69545C26.4173 5.85567 26.6591 5.87358 26.8193 5.73547C26.9795 5.59736 26.9975 5.35551 26.8594 5.1953L26.2792 5.69545ZM3.48208 24.2614L3.84747 24.3763L3.90203 24.2027L3.8019 24.0507L3.48208 24.2614ZM7.46466 3.71365L7.24854 3.39745L7.46466 3.71365ZM7.34917 28.4171L7.55342 28.0931L7.40064 27.9968L7.22915 28.0534L7.34917 28.4171ZM14.7053 31.3383C14.9161 31.3559 15.1012 31.1992 15.1187 30.9884C15.1363 30.7776 14.9796 30.5925 14.7688 30.575L14.7053 31.3383ZM10.9854 30.2064L10.8605 30.5685L10.9854 30.2064ZM1.17335 13.526L1.55159 13.5862L1.17335 13.526ZM18.2002 1.2321L18.2599 0.853637L18.2494 0.852278L18.2002 1.2321ZM30.4596 15.9909C30.4753 16.2019 30.6589 16.3602 30.8699 16.3446C31.0808 16.3289 31.2392 16.1453 31.2235 15.9343L30.4596 15.9909ZM30.008 9.73739C29.9412 9.53671 29.7243 9.42826 29.5236 9.49515C29.3229 9.56204 29.2145 9.77895 29.2814 9.97962L30.008 9.73739ZM30.8224 15.7042L30.4405 15.7325L30.8224 15.7042ZM29.6594 9.90272L29.2961 10.0238L29.6594 9.90272ZM1.92735 29.2083L1.56197 29.0934L1.92735 29.2083ZM2.6858 29.956L2.56577 29.5923L2.6858 29.956ZM3.1167 24.1466L1.56197 29.0934L2.29273 29.3231L3.84747 24.3763L3.1167 24.1466ZM2.80582 30.3197L7.4692 28.7808L7.22915 28.0534L2.56577 29.5923L2.80582 30.3197ZM7.34917 28.4171C7.14493 28.7411 7.14497 28.7411 7.14501 28.7411C7.14504 28.7412 7.14509 28.7412 7.14514 28.7412C7.14524 28.7413 7.14536 28.7414 7.14552 28.7415C7.14583 28.7416 7.14625 28.7419 7.14679 28.7423C7.14786 28.7429 7.14938 28.7439 7.15135 28.7451C7.15529 28.7476 7.16101 28.7512 7.16844 28.7558C7.1833 28.765 7.20503 28.7785 7.23315 28.7957C7.28937 28.8301 7.37115 28.8797 7.4746 28.9409C7.68141 29.0632 7.9753 29.2325 8.32502 29.4211C9.02167 29.7967 9.9515 30.255 10.8605 30.5685L11.1102 29.8443C10.2579 29.5504 9.36966 29.114 8.68854 28.7468C8.34938 28.564 8.06446 28.3998 7.86469 28.2816C7.76485 28.2225 7.6864 28.175 7.6332 28.1424C7.60661 28.1261 7.58634 28.1136 7.57288 28.1052C7.56615 28.1011 7.56112 28.0979 7.55786 28.0959C7.55622 28.0948 7.55503 28.0941 7.55429 28.0936C7.55392 28.0934 7.55366 28.0932 7.55351 28.0931C7.55344 28.0931 7.5534 28.0931 7.55338 28.0931C7.55337 28.0931 7.55338 28.0931 7.55338 28.0931C7.55339 28.0931 7.55342 28.0931 7.34917 28.4171ZM10.8605 30.5685C11.7278 30.8676 12.6907 31.0594 13.429 31.1763C13.7998 31.235 14.1174 31.2754 14.3428 31.3011C14.4555 31.314 14.5453 31.3232 14.6073 31.3293C14.6383 31.3323 14.6624 31.3345 14.6789 31.336C14.6872 31.3368 14.6936 31.3373 14.698 31.3377C14.7002 31.3379 14.7019 31.3381 14.7031 31.3382C14.7037 31.3382 14.7042 31.3383 14.7046 31.3383C14.7048 31.3383 14.7049 31.3383 14.705 31.3383C14.7051 31.3383 14.7051 31.3383 14.7052 31.3383C14.7052 31.3383 14.7053 31.3383 14.737 30.9567C14.7688 30.575 14.7688 30.575 14.7689 30.575C14.7689 30.575 14.7689 30.575 14.7689 30.575C14.7689 30.575 14.7688 30.575 14.7688 30.575C14.7686 30.575 14.7683 30.5749 14.7679 30.5749C14.7671 30.5748 14.7659 30.5747 14.7641 30.5746C14.7605 30.5743 14.755 30.5738 14.7477 30.5731C14.7329 30.5718 14.7107 30.5697 14.6817 30.5669C14.6235 30.5612 14.5379 30.5524 14.4297 30.5401C14.2132 30.5154 13.9067 30.4764 13.5488 30.4197C12.8297 30.3058 11.9167 30.1225 11.1102 29.8443L10.8605 30.5685ZM7.24854 3.39745C3.24153 6.13634 1.39393 9.70421 0.795113 13.4658L1.55159 13.5862C2.12046 10.0128 3.86354 6.63903 7.68079 4.02985L7.24854 3.39745ZM0.795113 13.4658C0.318193 16.4616 0.912777 19.2128 1.61901 21.2058C1.97267 22.2037 2.356 23.0164 2.65169 23.5808C2.79961 23.8631 2.92581 24.0838 3.01571 24.2349C3.06066 24.3104 3.09656 24.3686 3.12159 24.4085C3.1341 24.4284 3.1439 24.4438 3.15076 24.4544C3.15418 24.4598 3.15687 24.4639 3.1588 24.4669C3.15977 24.4683 3.16054 24.4695 3.16112 24.4704C3.16141 24.4709 3.16165 24.4712 3.16184 24.4715C3.16193 24.4717 3.16204 24.4718 3.16209 24.4719C3.16218 24.472 3.16226 24.4722 3.48208 24.2614C3.8019 24.0507 3.80196 24.0508 3.80201 24.0509C3.80201 24.0509 3.80204 24.0509 3.80204 24.0509C3.80203 24.0509 3.80198 24.0508 3.80187 24.0507C3.80167 24.0503 3.80127 24.0497 3.80068 24.0488C3.79951 24.047 3.79757 24.044 3.7949 24.0399C3.78957 24.0316 3.78131 24.0187 3.77035 24.0012C3.74843 23.9663 3.71571 23.9133 3.674 23.8432C3.59055 23.7029 3.47119 23.4944 3.33022 23.2253C3.04815 22.6869 2.68045 21.9077 2.34102 20.9499C1.66109 19.0312 1.10131 16.4147 1.55159 13.5862L0.795113 13.4658ZM26.5693 5.44538C26.8594 5.1953 26.8592 5.19517 26.8591 5.19503C26.8591 5.19497 26.8589 5.19482 26.8588 5.19469C26.8586 5.19443 26.8583 5.19413 26.858 5.19377C26.8574 5.19305 26.8566 5.19214 26.8556 5.19102C26.8537 5.18879 26.851 5.18576 26.8477 5.18195C26.8409 5.17434 26.8313 5.16362 26.8189 5.14998C26.7941 5.12269 26.758 5.08369 26.7107 5.03441C26.6159 4.93587 26.4761 4.79616 26.2918 4.62677C25.9233 4.28809 25.3761 3.83016 24.6545 3.34541C23.2114 2.37594 21.0674 1.29697 18.2599 0.853781L18.1405 1.61042C20.8162 2.03281 22.8567 3.06049 24.2273 3.98126C24.9126 4.44162 25.4296 4.87472 25.7735 5.19078C25.9454 5.34876 26.0739 5.47735 26.1584 5.56527C26.2007 5.60922 26.2319 5.64299 26.2521 5.66516C26.2621 5.67625 26.2694 5.68443 26.274 5.68954C26.2762 5.6921 26.2778 5.69388 26.2787 5.69487C26.2791 5.69537 26.2794 5.69567 26.2794 5.69576C26.2795 5.69581 26.2795 5.69581 26.2794 5.69576C26.2794 5.69573 26.2793 5.69566 26.2793 5.69564C26.2793 5.69555 26.2792 5.69545 26.5693 5.44538ZM18.2494 0.852278C15.0663 0.439405 11.1311 0.743598 7.24854 3.39745L7.68079 4.02985C11.3685 1.5092 15.1006 1.21627 18.1509 1.61192L18.2494 0.852278ZM31.2235 15.9343L31.2044 15.6759L30.4405 15.7325L30.4596 15.9909L31.2235 15.9343ZM30.0228 9.78161L30.008 9.73739L29.2814 9.97962L29.2961 10.0238L30.0228 9.78161ZM31.2044 15.6759C31.0558 13.6698 30.6589 11.6899 30.0228 9.78161L29.2961 10.0238C29.9122 11.8721 30.2966 13.7896 30.4405 15.7325L31.2044 15.6759ZM1.56197 29.0934C1.32221 29.8563 2.04646 30.5703 2.80582 30.3197L2.56577 29.5923C2.39909 29.6473 2.2401 29.4905 2.29273 29.3231L1.56197 29.0934Z" fill="#51565F"/>
<mask id="path-7-inside-1_5327_2466" fill="white">
<path fill-rule="evenodd" clip-rule="evenodd" d="M44.1452 38.555C45.6942 36.2305 46.597 33.4385 46.597 30.4357C46.597 22.339 40.0334 15.7754 31.9367 15.7754C23.84 15.7754 17.2764 22.339 17.2764 30.4357C17.2764 38.5324 23.84 45.096 31.9367 45.096C34.8697 45.096 37.6016 44.2347 39.8931 42.7512L45.0912 45.0696C45.8841 45.4232 46.7006 44.6237 46.3637 43.8235L44.1452 38.555Z"/>
</mask>
<path fill-rule="evenodd" clip-rule="evenodd" d="M44.1452 38.555C45.6942 36.2305 46.597 33.4385 46.597 30.4357C46.597 22.339 40.0334 15.7754 31.9367 15.7754C23.84 15.7754 17.2764 22.339 17.2764 30.4357C17.2764 38.5324 23.84 45.096 31.9367 45.096C34.8697 45.096 37.6016 44.2347 39.8931 42.7512L45.0912 45.0696C45.8841 45.4232 46.7006 44.6237 46.3637 43.8235L44.1452 38.555Z" fill="#80D6FA"/>
<path d="M44.1452 38.555L43.5078 38.1302L43.2795 38.4728L43.4393 38.8522L44.1452 38.555ZM39.8931 42.7512L40.2051 42.0516L39.8256 41.8824L39.4768 42.1082L39.8931 42.7512ZM45.0912 45.0696L44.7792 45.7692L44.7792 45.7692L45.0912 45.0696ZM46.3637 43.8235L47.0697 43.5262L47.0697 43.5262L46.3637 43.8235ZM45.831 30.4357C45.831 33.2827 44.9755 35.9276 43.5078 38.1302L44.7827 38.9797C46.4129 36.5334 47.363 33.5943 47.363 30.4357H45.831ZM31.9367 16.5414C39.6103 16.5414 45.831 22.7621 45.831 30.4357H47.363C47.363 21.916 40.4564 15.0094 31.9367 15.0094V16.5414ZM18.0424 30.4357C18.0424 22.7621 24.2631 16.5414 31.9367 16.5414V15.0094C23.417 15.0094 16.5104 21.916 16.5104 30.4357H18.0424ZM31.9367 44.33C24.2631 44.33 18.0424 38.1093 18.0424 30.4357H16.5104C16.5104 38.9554 23.417 45.862 31.9367 45.862V44.33ZM39.4768 42.1082C37.3055 43.5138 34.7176 44.33 31.9367 44.33V45.862C35.0218 45.862 37.8976 44.9556 40.3094 43.3942L39.4768 42.1082ZM45.4032 44.37L40.2051 42.0516L39.5811 43.4508L44.7792 45.7692L45.4032 44.37ZM45.6577 44.1208C45.7251 44.2808 45.5618 44.4407 45.4032 44.37L44.7792 45.7692C46.2065 46.4057 47.6762 44.9666 47.0697 43.5262L45.6577 44.1208ZM43.4393 38.8522L45.6577 44.1208L47.0697 43.5262L44.8512 38.2577L43.4393 38.8522Z" fill="#51565F" mask="url(#path-7-inside-1_5327_2466)"/>
<circle cx="24.895" cy="30.7847" r="1.96241" fill="#FF7474"/>
<circle cx="31.9365" cy="30.7847" r="1.96241" fill="#FF7474"/>
<circle cx="38.978" cy="30.7847" r="1.96241" fill="#FF7474"/>
<mask id="path-12-inside-2_5327_2466" fill="white">
<path d="M22.5672 41.6983C23.995 42.8906 25.6367 43.8001 27.4047 44.3781L27.6563 43.6088C25.986 43.0626 24.4349 42.2034 23.0861 41.077L22.5672 41.6983Z"/>
</mask>
<path d="M22.5672 41.6983C23.995 42.8906 25.6367 43.8001 27.4047 44.3781L27.6563 43.6088C25.986 43.0626 24.4349 42.2034 23.0861 41.077L22.5672 41.6983Z" stroke="#80D6FA" stroke-width="1.53201" mask="url(#path-12-inside-2_5327_2466)"/>
<path d="M22.5402 41.6969C23.9828 42.9018 25.6435 43.8181 27.432 44.396L27.554 44.0184C25.8139 43.4561 24.1981 42.5646 22.7946 41.3923L22.5402 41.6969Z" fill="white"/>
<path d="M27.6911 43.6738C27.6385 43.6573 27.5835 43.6505 27.5292 43.6537C27.4749 43.6569 27.4224 43.67 27.3746 43.6923C27.3268 43.7146 27.2848 43.7457 27.2508 43.7837C27.2168 43.8217 27.1916 43.866 27.1766 43.914C27.1617 43.962 27.1572 44.0127 27.1634 44.0633C27.1697 44.1139 27.1866 44.1634 27.2132 44.2089C27.2398 44.2545 27.2755 44.2952 27.3183 44.3287C27.3611 44.3622 27.4103 44.388 27.4628 44.4044L27.577 44.0391L27.6911 43.6738Z" fill="#51565F"/>
<path d="M22.5338 41.6828C22.5753 41.7185 22.623 41.7464 22.6739 41.7649C22.7248 41.7833 22.7781 41.7919 22.8306 41.7903C22.8832 41.7886 22.9339 41.7767 22.9801 41.7552C23.0262 41.7337 23.0668 41.703 23.0995 41.6649C23.1322 41.6269 23.1564 41.5821 23.1707 41.5333C23.1851 41.4844 23.1892 41.4324 23.1829 41.3802C23.1767 41.328 23.1601 41.2767 23.1342 41.2291C23.1083 41.1815 23.0736 41.1387 23.032 41.1029L22.7829 41.3929L22.5338 41.6828Z" fill="#51565F"/>
</svg>
