<svg width="192" height="207" viewBox="0 0 192 207" fill="none" xmlns="http://www.w3.org/2000/svg">
<path d="M176.451 134.521L176.102 134.871C172.608 133.473 169.113 134.521 166.318 137.666L159.33 144.654L124.04 179.945L120.546 183.439V204.403H15.7233C8.03642 204.403 1.74707 198.114 1.74707 190.427V15.7228C1.74707 8.03593 8.03642 1.74658 15.7233 1.74658H127.534V36.6873C127.534 44.3741 133.823 50.6634 141.51 50.6634H176.451V134.521Z" fill="#F2EDDA"/>
<path d="M176.451 50.6639H141.51C133.823 50.6639 127.534 44.3746 127.534 36.6877V1.74707L176.451 50.6639Z" fill="#AAB1BA"/>
<path d="M169.812 155.137L134.522 190.427L124.04 179.945L159.33 144.654L169.812 155.137ZM180.294 165.619L145.004 200.909L134.522 190.427L169.812 155.137L180.294 165.619Z" fill="#80D6FA"/>
<path d="M36.6877 85.6056H57.6522V64.6411H36.6877V85.6056ZM36.6877 169.464H57.6522V148.499H36.6877V169.464Z" fill="#FFD0A1"/>
<path d="M187.283 144.655C191.476 148.847 191.476 154.438 187.283 158.631L180.294 165.619L169.812 155.137L159.33 144.655L166.318 137.666C169.114 134.871 172.957 133.823 176.451 134.871C177.849 135.22 179.247 136.268 180.295 137.666L187.283 144.655Z" fill="#FF7474"/>
<path d="M145.004 200.909L141.51 204.403H120.546V183.439L124.04 179.945L134.522 190.427L145.004 200.909Z" fill="#E4F2DE"/>
<path d="M141.51 206.151H120.546C119.498 206.151 118.799 205.452 118.799 204.404V183.439C118.799 183.09 119.148 182.391 119.148 182.042L164.921 136.269C167.366 133.823 170.162 132.775 172.957 132.775C176.102 132.775 178.897 134.173 181.343 136.269L188.331 143.257C193.223 148.149 193.223 154.788 188.331 159.68L142.559 205.452C142.559 205.801 141.86 206.151 141.51 206.151ZM122.293 202.657H140.812L142.559 200.909L124.04 182.391L122.293 184.138V202.657ZM136.968 190.428L145.005 198.464L177.849 165.62L169.812 157.583L136.968 190.428ZM126.486 179.945L134.522 187.982L167.367 155.138L159.33 147.101L126.486 179.945ZM161.776 144.655L180.295 163.174L185.885 157.583C187.632 155.836 188.68 153.74 188.68 151.993C188.68 149.896 187.632 147.8 185.885 146.053L178.897 139.065C175.403 135.571 170.86 135.571 167.366 139.065L161.776 144.655ZM106.57 206.151H15.7234C6.9883 206.151 0 199.163 0 190.428V15.7234C0 6.9883 6.9883 0 15.7234 0H127.534C127.883 0 128.582 0.349272 128.932 0.349272L163.872 35.2899C164.571 35.9889 164.571 37.0371 163.872 37.7357C163.173 38.4342 162.125 38.4346 161.427 37.7357L126.835 3.14467H15.7234C9.08475 3.14467 3.49394 8.73507 3.49394 15.3741V190.078C3.49394 196.717 9.08434 202.308 15.7234 202.308H106.57C107.618 202.308 108.317 203.007 108.317 204.055C108.316 205.103 107.618 206.151 106.57 206.151ZM106.57 171.21H78.6168C77.5686 171.21 76.8697 170.511 76.8697 169.463C76.8697 168.414 77.5686 167.715 78.6168 167.715H106.57C107.618 167.715 108.317 168.414 108.317 169.463C108.316 170.511 107.618 171.21 106.57 171.21ZM57.6523 171.21H36.6879C35.6396 171.21 34.9407 170.511 34.9407 169.463V148.498C34.9407 147.45 35.6396 146.751 36.6879 146.751H57.6523C58.7006 146.751 59.3995 147.45 59.3995 148.498V169.463C59.3995 170.511 58.7006 171.21 57.6523 171.21ZM38.435 167.716H55.9056V150.245H38.435V167.716ZM127.534 150.245H120.546C119.498 150.245 118.799 149.546 118.799 148.498C118.799 147.45 119.498 146.751 120.546 146.751H127.534C128.582 146.751 129.281 147.45 129.281 148.498C129.281 149.546 128.582 150.245 127.534 150.245ZM106.57 150.245H78.6168C77.5686 150.245 76.8697 149.546 76.8697 148.498C76.8697 147.45 77.5686 146.751 78.6168 146.751H106.57C107.618 146.751 108.317 147.45 108.317 148.498C108.317 149.546 107.618 150.245 106.57 150.245ZM43.6762 129.281C43.3269 129.281 42.6279 128.932 42.2787 128.932L35.2904 121.943C34.5914 121.244 34.5914 120.196 35.2904 119.498C35.9893 118.799 37.0375 118.799 37.7361 119.498L43.3265 125.088L56.2544 105.871C56.9534 105.172 58.0016 104.822 58.7002 105.521C59.3991 106.22 59.7484 107.269 59.0494 107.967L45.0732 128.932C44.7244 128.932 44.3747 129.281 43.6762 129.281ZM141.51 129.281H120.546C119.498 129.281 118.799 128.582 118.799 127.534C118.799 126.485 119.498 125.787 120.546 125.787H141.51C142.559 125.787 143.257 126.485 143.257 127.534C143.257 128.582 142.559 129.281 141.51 129.281ZM106.57 129.281H78.6168C77.5686 129.281 76.8697 128.582 76.8697 127.534C76.8697 126.485 77.5686 125.787 78.6168 125.787H106.57C107.618 125.787 108.317 126.485 108.317 127.534C108.316 128.582 107.618 129.281 106.57 129.281ZM176.451 122.293C175.403 122.293 174.704 121.594 174.704 120.546V52.4112H141.51C132.775 52.4112 125.787 45.4229 125.787 36.6879V19.2173C125.787 18.1691 126.486 17.4701 127.534 17.4701C128.582 17.4701 129.281 18.1691 129.281 19.2173V36.6879C129.281 43.3265 134.872 48.9173 141.511 48.9173H176.451C177.5 48.9173 178.199 49.6162 178.199 50.6645V120.546C178.198 121.594 177.499 122.293 176.451 122.293ZM134.522 108.316H99.5813C98.5331 108.316 97.8341 107.617 97.8341 106.569C97.8341 105.521 98.5331 104.822 99.5813 104.822H134.522C135.57 104.822 136.269 105.521 136.269 106.569C136.269 107.618 135.57 108.316 134.522 108.316ZM85.6051 108.316H78.6168C77.5686 108.316 76.8697 107.617 76.8697 106.569C76.8697 105.521 77.5686 104.822 78.6168 104.822H85.6051C86.6534 104.822 87.3523 105.521 87.3523 106.569C87.3519 107.618 86.6534 108.316 85.6051 108.316ZM141.51 87.3519H113.558C112.509 87.3519 111.81 86.6529 111.81 85.6047C111.81 84.5565 112.509 83.8575 113.558 83.8575H141.51C142.559 83.8575 143.257 84.5565 143.257 85.6047C143.257 86.6534 142.559 87.3519 141.51 87.3519ZM99.5813 87.3519H78.6168C77.5686 87.3519 76.8697 86.6529 76.8697 85.6047C76.8697 84.5565 77.5686 83.8575 78.6168 83.8575H99.5813C100.63 83.8575 101.328 84.5565 101.328 85.6047C101.328 86.6534 100.63 87.3519 99.5813 87.3519ZM57.6523 87.3519H36.6879C35.6396 87.3519 34.9407 86.6529 34.9407 85.6047V64.6402C34.9407 63.592 35.6396 62.8931 36.6879 62.8931H57.6523C58.7006 62.8931 59.3995 63.592 59.3995 64.6402V85.6047C59.3995 86.6534 58.7006 87.3519 57.6523 87.3519ZM38.435 83.858H55.9056V66.3874H38.435V83.858ZM113.558 66.3874H78.6168C77.5686 66.3874 76.8697 65.6885 76.8697 64.6402C76.8697 63.592 77.5686 62.8931 78.6168 62.8931H113.558C114.606 62.8931 115.305 63.592 115.305 64.6402C115.305 65.6889 114.606 66.3874 113.558 66.3874Z" fill="#51565F"/>
</svg>
