<svg width="192" height="192" viewBox="0 0 192 192" fill="none" xmlns="http://www.w3.org/2000/svg">
<path d="M163.5 157.802H28.5004C16.0504 157.802 6.00043 147.752 6.00043 135.302V56.7021C6.00043 44.2521 16.0504 34.2021 28.5004 34.2021H163.5C175.95 34.2021 186 44.2521 186 56.7021V135.452C186 147.752 175.95 157.802 163.5 157.802Z" fill="#F2EDDA"/>
<path d="M163.5 159.749H28.4996C14.9996 159.749 4.19965 148.799 4.19965 135.449V56.6994C4.19965 43.1994 15.1496 32.3994 28.4996 32.3994H163.5C177 32.3994 187.8 43.3494 187.8 56.6994V135.449C187.8 148.799 177 159.749 163.5 159.749ZM28.4996 35.9994C17.0996 35.9994 7.79965 45.2994 7.79965 56.6994V135.449C7.79965 146.849 17.0996 156.149 28.4996 156.149H163.5C174.9 156.149 184.2 146.849 184.2 135.449V56.6994C184.2 45.2994 174.9 35.9994 163.5 35.9994H28.4996Z" fill="#51565F"/>
<path d="M28.5004 157.801H163.5C175.95 157.801 186 147.751 186 135.301L107.7 87.3006C100.5 82.9506 91.3504 82.9506 84.1504 87.3006L6.00043 135.301C6.00043 147.751 16.0504 157.801 28.5004 157.801Z" fill="#F2EDDA"/>
<path d="M162.655 160.002H29.0497C15.6892 160.002 5.00073 148.988 5.00073 135.561C5.00073 134.957 5.29763 134.354 5.89143 133.901L83.3825 85.6228C87.2422 83.2089 91.5472 82.002 96.0007 82.002C100.454 82.002 104.759 83.2089 108.619 85.6228L186.11 133.901C186.704 134.203 187.001 134.807 187.001 135.561C186.704 148.988 176.015 160.002 162.655 160.002ZM8.71199 136.466C9.15734 147.48 18.0644 156.23 29.0497 156.23H162.655C173.64 156.23 182.547 147.48 182.993 136.466L106.541 88.942C100.157 85.0194 91.6957 85.0194 85.1639 88.942L8.71199 136.466Z" fill="#51565F"/>
<path d="M163.5 34.2021H28.5004C16.0504 34.2021 6.00043 44.2521 6.00043 56.7021L83.2504 109.802C90.9004 115.052 101.1 115.052 108.75 109.802L186 56.7021C186 44.2521 175.95 34.2021 163.5 34.2021Z" fill="#80D6FA"/>
<path d="M95.9997 115.499C91.0497 115.499 86.2497 113.999 82.1997 111.149L4.94965 58.1994C4.49965 57.8994 4.19965 57.2994 4.19965 56.6994C4.19965 43.1994 15.1496 32.3994 28.4997 32.3994H163.5C177 32.3994 187.8 43.3494 187.8 56.6994C187.8 57.2994 187.5 57.8994 187.05 58.1994L109.8 111.299C105.75 114.149 100.95 115.499 95.9997 115.499ZM7.94965 55.6494L84.2997 108.149C87.7497 110.549 91.7997 111.749 95.9997 111.749C100.2 111.749 104.25 110.549 107.7 108.149L184.05 55.6494C183.6 44.6994 174.6 35.9994 163.5 35.9994H28.4997C17.3996 35.9994 8.39965 44.6994 7.94965 55.6494Z" fill="#51565F"/>
<path d="M97.9999 130.228C99.6116 130.228 101.263 130.702 102.859 131.161C105.015 131.78 107.054 132.369 108.649 131.706C110.334 131.008 111.375 129.105 112.478 127.09C113.251 125.674 114.053 124.211 115.133 123.13C116.214 122.049 117.678 121.248 119.093 120.474C121.107 119.371 123.01 118.332 123.709 116.646C124.37 115.053 123.783 113.014 123.164 110.856C122.704 109.262 122.23 107.61 122.23 105.999C122.23 104.387 122.704 102.736 123.163 101.14C123.782 98.9822 124.37 96.9433 123.708 95.3501C123.01 93.6649 121.107 92.6242 119.092 91.5214C117.677 90.7475 116.213 89.9461 115.133 88.866C114.051 87.7855 113.25 86.3207 112.476 84.9058C111.373 82.8919 110.333 80.9894 108.648 80.2905C107.055 79.6293 105.017 80.2169 102.859 80.836C101.263 81.2957 99.6116 81.7693 97.9999 81.7693C96.3882 81.7693 94.7372 81.2957 93.1413 80.836C90.985 80.2169 88.9452 79.628 87.3515 80.2914C85.6658 80.9894 84.6251 82.8919 83.5222 84.9075C82.7483 86.3229 81.9473 87.7864 80.8668 88.8669C79.7862 89.9479 78.3218 90.7493 76.9064 91.5231C74.8925 92.626 72.9899 93.6658 72.291 95.351C71.6306 96.9442 72.2165 98.983 72.8357 101.141C73.2962 102.736 73.7699 104.387 73.7699 105.999C73.7699 107.61 73.2962 109.262 72.8365 110.857C72.2174 113.015 71.6306 115.054 72.2919 116.647C72.9899 118.332 74.8925 119.373 76.9082 120.476C78.3235 121.25 79.7871 122.051 80.8676 123.131C81.9491 124.212 82.7501 125.677 83.5239 127.092C84.6269 129.105 85.6667 131.008 87.3524 131.707C88.9487 132.37 90.985 131.78 93.1422 131.162C94.7372 130.702 96.3882 130.228 97.9999 130.228Z" fill="#FF7474"/>
<path d="M103.461 113H101.246V107.313H95.5247V113H93.3011V100.203H95.5247V105.529H101.246V100.203H103.461V113Z" fill="#51565F"/>
<path d="M84.0698 117.401C81.5265 114.297 80.0003 110.327 80.0003 106.001C80.0003 96.0599 88.0592 88.001 98.0003 88.001C102.052 88.001 105.792 89.34 108.8 91.5997M88.0991 121.036C90.9395 122.91 94.3425 124.001 98.0003 124.001C107.941 124.001 116 115.942 116 106.001C116 102.064 114.737 98.4231 112.593 95.4604" stroke="#51565F" stroke-width="2.37037" stroke-linecap="round"/>
<path d="M120 34.002H140" stroke="white" stroke-width="4"/>
<path d="M119.94 35.9963C120.165 35.9952 120.386 35.9476 120.593 35.8564C120.8 35.7652 120.987 35.6321 121.145 35.4647C121.303 35.2973 121.427 35.0989 121.512 34.8809C121.597 34.6628 121.64 34.4294 121.638 34.1939C121.637 33.9583 121.592 33.7254 121.505 33.5082C121.418 33.2911 121.291 33.094 121.132 32.9283C120.972 32.7626 120.783 32.6315 120.576 32.5425C120.368 32.4534 120.146 32.4082 119.921 32.4094L119.931 34.2029L119.94 35.9963Z" fill="#51565F"/>
<path d="M140.024 35.9969C139.786 35.9956 139.551 35.948 139.332 35.8567C139.113 35.7654 138.915 35.6323 138.747 35.4648C138.58 35.2974 138.448 35.099 138.358 34.8809C138.269 34.6629 138.223 34.4294 138.224 34.1939C138.225 33.9583 138.274 33.7254 138.366 33.5083C138.458 33.2911 138.592 33.0941 138.761 32.9285C138.93 32.7628 139.13 32.6318 139.35 32.5428C139.57 32.4538 139.805 32.4087 140.043 32.4099L140.033 34.2034L140.024 35.9969Z" fill="#51565F"/>
<path d="M42.4785 158.221H62.4785" stroke="white" stroke-width="4"/>
<path d="M42.4207 160.004C42.6449 160.003 42.8667 159.953 43.0734 159.857C43.28 159.761 43.4675 159.621 43.6252 159.445C43.7828 159.269 43.9075 159.06 43.9921 158.831C44.0767 158.601 44.1195 158.355 44.1182 158.108C44.1169 157.86 44.0715 157.614 43.9844 157.386C43.8974 157.157 43.7706 156.95 43.6111 156.775C43.4516 156.601 43.2627 156.463 43.055 156.369C42.8473 156.275 42.6251 156.228 42.4008 156.229L42.4108 158.117L42.4207 160.004Z" fill="#51565F"/>
<path d="M62.5005 159.995C62.2629 159.994 62.028 159.944 61.809 159.848C61.59 159.752 61.3913 159.612 61.2243 159.437C61.0572 159.261 60.9251 159.053 60.8353 158.824C60.7456 158.595 60.7001 158.35 60.7014 158.102C60.7027 157.855 60.7508 157.611 60.8429 157.383C60.9351 157.155 61.0694 156.948 61.2383 156.774C61.4072 156.6 61.6073 156.462 61.8273 156.369C62.0473 156.275 62.2828 156.228 62.5203 156.229L62.5104 158.112L62.5005 159.995Z" fill="#51565F"/>
</svg>
