<svg width="196" height="148" viewBox="0 0 196 148" fill="none" xmlns="http://www.w3.org/2000/svg">
<path d="M2 133.147H194V135.738C194 141.26 189.523 145.738 184 145.738H12C6.47715 145.738 2 141.26 2 135.738V133.147Z" fill="#FFD0A1"/>
<path d="M192.426 133.147H4.09836L27.1803 102.196H168.295L192.426 133.147Z" fill="#F2EDDA"/>
<path d="M194 133.148L169.344 102.722H26.6557L2.5246 133.148M194 133.148H159.377M194 133.148V135.738C194 141.261 189.523 145.738 184 145.738H12.5246C7.00175 145.738 2.5246 141.261 2.5246 135.738V133.148M2.5246 133.148H142.066" stroke="#51565F" stroke-width="3.2" stroke-linecap="round" stroke-linejoin="round"/>
<path d="M25.082 12C25.082 6.47715 29.5591 2 35.082 2H160.918C166.441 2 170.918 6.47715 170.918 12V103.77H25.082V12Z" fill="#F2EDDA"/>
<path d="M48.9382 2H36.1311C30.6083 2 26.1311 6.47715 26.1311 12V102.721H169.869V12C169.869 6.47717 165.392 2 159.869 2H67.0492" stroke="#51565F" stroke-width="3.2" stroke-linecap="round" stroke-linejoin="round"/>
<path d="M47.2434 32.8826L47.2439 32.8821C47.2437 32.8823 47.2439 32.8821 47.2443 32.8817C47.253 32.8737 47.3722 32.7639 47.7337 32.6052C48.0903 32.4486 48.5817 32.2878 49.2166 32.1323C50.4854 31.8213 52.1749 31.5672 54.1786 31.3719C58.1766 30.9821 63.2447 30.8426 68.3084 30.8859C73.3673 30.9292 78.3801 31.1545 82.2571 31.4856C84.1991 31.6514 85.8307 31.8417 87.0308 32.0439C87.6335 32.1455 88.0965 32.245 88.4227 32.337C88.5834 32.3823 88.6772 32.4169 88.7229 32.4347C88.9093 32.6362 89.1915 33.1346 89.4868 34.0862C89.7913 35.0671 90.0227 36.2205 90.253 37.3739L90.274 37.4789C90.4821 38.5219 90.7102 39.6649 91.0136 40.4507C91.1452 40.7916 91.4282 41.462 92.04 41.8693C92.421 42.123 92.9164 42.265 93.4554 42.1702C93.9429 42.0844 94.3033 41.8331 94.5358 41.6238C95.0822 41.1321 96.2687 40.0951 97.6796 38.8621C100.31 36.5631 103.721 33.5826 105.214 32.1848C106.122 31.3352 107.19 30.9565 107.903 30.9775C108.238 30.9873 108.413 31.0792 108.496 31.15C108.564 31.2075 108.696 31.3531 108.747 31.7565L108.747 31.7589C108.836 32.4617 108.931 34.8564 109.002 38.2621C109.073 41.6155 109.121 45.8368 109.13 50.1019C109.139 54.368 109.11 58.6688 109.028 62.1832C108.944 65.7597 108.807 68.3702 108.628 69.3654L108.628 69.3688C108.437 70.4476 108.18 71.08 107.958 71.4296C107.757 71.7453 107.62 71.7822 107.593 71.7897L107.592 71.79C107.532 71.8061 107.368 71.8252 107.037 71.7053C106.707 71.5855 106.313 71.3626 105.875 71.0431C103.922 69.6199 97.23 63.8874 95.1193 61.7846C94.6497 61.3168 93.769 60.755 92.6999 61.1595C91.875 61.4716 91.453 62.2116 91.2534 62.6156C90.7999 63.5332 90.4863 64.9039 90.2251 66.1545C90.1412 66.5565 90.0605 66.9581 89.9807 67.3555C89.7917 68.2963 89.6074 69.2138 89.3954 70.0572C89.2471 70.6469 89.0972 71.1489 88.9425 71.5472C88.8418 71.8067 88.7546 71.9805 88.6898 72.0902C88.6561 72.1023 88.6151 72.1161 88.5659 72.1313C88.2793 72.2201 87.8495 72.3174 87.2658 72.4152C86.1061 72.6096 84.5036 72.7798 82.5767 72.9198C78.7328 73.1991 73.7306 73.3494 68.6875 73.3601C63.6443 73.3709 58.5937 73.2419 54.6525 72.9679C52.6778 72.8306 51.0129 72.6589 49.7782 72.4566C49.1585 72.3551 48.6817 72.2513 48.3432 72.1515C48.1272 72.0878 48.0235 72.0413 47.9914 72.0272C47.6249 71.681 47.1742 70.9727 46.7249 69.7754C46.2696 68.5618 45.8745 67.008 45.55 65.1936C44.9017 61.5687 44.5639 57.0699 44.5224 52.5347C44.4809 48.0019 44.736 43.4909 45.2523 39.8478C45.5107 38.0242 45.83 36.4518 46.1974 35.2175C46.5799 33.9322 46.9624 33.1989 47.2434 32.8826ZM88.8085 72.0422C88.8083 72.0423 88.8081 72.0424 88.8079 72.0425C88.815 72.0384 88.8187 72.0366 88.8183 72.0369C88.8181 72.0372 88.8149 72.039 88.8085 72.0422Z" fill="#80D6FA" stroke="#51565F" stroke-width="3.2"/>
<rect x="128.452" y="13.0424" width="30.3738" height="17.7836" rx="2.4" fill="#FF7474" stroke="#51565F" stroke-width="3.2" stroke-linecap="round" stroke-linejoin="round"/>
<rect x="128.453" y="42.0277" width="30.3738" height="17.7836" rx="2.4" fill="#BFFF05" stroke="#51565F" stroke-width="3.2" stroke-linecap="round" stroke-linejoin="round"/>
<rect x="128.453" y="71.0121" width="30.3738" height="17.7836" rx="2.4" fill="#FFD0A1" stroke="#51565F" stroke-width="3.2" stroke-linecap="round" stroke-linejoin="round"/>
<path d="M31.3769 110.064H108.492" stroke="#51565F" stroke-width="3.2" stroke-linecap="round"/>
<path d="M26.131 117.409H76.4916" stroke="#51565F" stroke-width="3.2" stroke-linecap="round"/>
<path d="M21.9343 124.753H86.9834" stroke="#51565F" stroke-width="3.2" stroke-linecap="round"/>
<path d="M121.607 110.064L162.525 110.064" stroke="#51565F" stroke-width="3.2" stroke-linecap="round"/>
<path d="M89.0819 117.409L134.197 117.409" stroke="#51565F" stroke-width="3.2" stroke-linecap="round"/>
<path d="M99.5737 124.753L144.688 124.753" stroke="#51565F" stroke-width="3.2" stroke-linecap="round"/>
<path d="M146.787 117.409H169.869" stroke="#51565F" stroke-width="3.2" stroke-linecap="round"/>
<path d="M157.279 124.753H175.115" stroke="#51565F" stroke-width="3.2" stroke-linecap="round"/>
</svg>
