<!--<svg xmlns="http://www.w3.org/2000/svg" viewBox="0 0 512 512">-->
<!--  <g fill="#FFF">-->
<!--    <path d="M375.45 315.73a8.54 8.54 0 0 0-8.53-8.53h-51.2a8.54 8.54 0 0 0 0 17.07h51.2a8.54 8.54 0 0 0 8.53-8.54zM341.32 93.87V51.2a8.54 8.54 0 0 0-17.07 0v42.67a42.72 42.72 0 0 0 42.67 42.66h76.8v162.14a8.54 8.54 0 0 0 17.06 0V128a8.54 8.54 0 0 0-8.53-8.53h-85.33a25.63 25.63 0 0 1-25.6-25.6zM366.92 204.8h-68.27a8.54 8.54 0 0 0 0 17.07h68.27a8.54 8.54 0 0 0 0-17.07zM273.05 213.33a8.54 8.54 0 0 0-8.53-8.53h-51.2a8.54 8.54 0 0 0 0 17.07h51.2a8.54 8.54 0 0 0 8.53-8.54zM213.32 256a8.54 8.54 0 0 0 0 17.07h17.06a8.54 8.54 0 0 0 0-17.07h-17.06zM213.32 170.67h85.33a8.54 8.54 0 0 0 0-17.07h-85.33a8.54 8.54 0 0 0 0 17.07zM264.52 273.07h85.33a8.54 8.54 0 0 0 0-17.07h-85.33a8.54 8.54 0 0 0 0 17.07zM315.72 358.4a8.54 8.54 0 0 0 0 17.07h17.06a8.54 8.54 0 0 0 0-17.07h-17.06zM281.58 307.2h-68.26a8.54 8.54 0 0 0 0 17.07h68.26a8.54 8.54 0 0 0 0-17.07zM281.58 358.4h-68.26a8.54 8.54 0 0 0 0 17.07h68.26a8.54 8.54 0 0 0 0-17.07zM484.75 351.5l-17.06-17.07c-13.12-13.12-33.1-13.09-46.2 0l-111.8 111.8a8.55 8.55 0 0 0-2.5 6.04v51.2a8.54 8.54 0 0 0 8.53 8.53h51.2c2.26 0 4.43-.9 6.03-2.5l111.8-111.8c13.6-13.6 13.6-32.6 0-46.2zm-74.3 18.1L424 383.13l-74.14 74.14-13.53-13.54 74.13-74.13zm-86.2 125.33V455.8l39.13 39.13h-39.13zm51.2-12.06l-13.53-13.54 74.14-74.13 13.53 13.53-74.14 74.14zm97.24-97.24l-11.04 11.03-39.13-39.13 11.03-11.03c6.74-6.74 15.3-6.77 22.07 0l17.07 17.06c6.9 6.92 6.9 15.17 0 22.07z"/>-->
<!--    <path d="M281.58 494.93H59.72a25.63 25.63 0 0 1-25.6-25.6V42.67a25.63 25.63 0 0 1 25.6-25.6h269.53l82.83 82.83a8.52 8.52 0 1 0 12.07-12.07L338.82 2.5a8.51 8.51 0 0 0-6.04-2.5H59.72a42.71 42.71 0 0 0-42.67 42.67v426.66A42.72 42.72 0 0 0 59.72 512h221.87a8.54 8.54 0 0 0 0-17.07z"/>-->
<!--    <path d="M281.58 409.6h-68.26a8.54 8.54 0 0 0 0 17.07h68.26a8.54 8.54 0 0 0 0-17.07zM170.65 162.13a8.54 8.54 0 0 0-8.53-8.53h-51.2a8.54 8.54 0 0 0-8.53 8.53v51.2a8.54 8.54 0 0 0 8.53 8.54h51.2a8.54 8.54 0 0 0 8.53-8.54v-51.2zm-17.07 42.67h-34.13v-34.13h34.13v34.13zM110.92 426.67h51.2a8.54 8.54 0 0 0 8.53-8.54v-51.2a8.54 8.54 0 0 0-8.53-8.53h-51.2a8.54 8.54 0 0 0-8.54 8.53v51.2a8.54 8.54 0 0 0 8.54 8.54zm8.53-51.2h34.13v34.13h-34.13v-34.13zM121.95 321.77a8.54 8.54 0 0 0 13.13-1.3l34.14-51.2a8.54 8.54 0 0 0-14.2-9.47l-28.36 42.53-9.71-9.7a8.52 8.52 0 1 0-12.07 12.07l17.07 17.07z"/>-->
<!--  </g>-->
<!--</svg>-->

<svg width="78" height="78" viewBox="0 0 78 78" fill="none" xmlns="http://www.w3.org/2000/svg">
<path d="M9.10004 0C4.07648 0.00571287 0.00571291 4.07648 0 9.10004V65.0003C0.00444339 69.3065 3.49376 72.7958 7.80003 72.8003H39.0002V77.8302L44.2002 74.3605L49.4002 77.8277V72.8003H57.2002V0H9.10004ZM7.80003 70.2003C4.92834 70.2003 2.60001 67.8719 2.60001 65.0003C2.60001 62.1286 4.92834 59.8002 7.80003 59.8002H54.6002V63.7003H6.50003C5.7821 63.7003 5.20002 64.2823 5.20002 65.0003C5.20002 65.7182 5.7821 66.3003 6.50003 66.3003H39.0002V70.2003H7.80003ZM46.8002 72.9704L44.2002 71.24L41.6002 72.9729V66.3003H46.8002V72.9704ZM49.4002 70.2003V66.3003H54.6002V70.2003H49.4002ZM7.80003 57.2002C5.88049 57.2002 4.02887 57.9093 2.60001 59.1902V9.10004C2.60445 5.51169 5.51169 2.60445 9.10004 2.60001H54.6002V57.2002H7.80003Z" fill="white"/>
<path d="M9.09981 5.2002C8.38189 5.2002 7.7998 5.78228 7.7998 6.5002V53.3004C7.7998 54.0183 8.38189 54.6004 9.09981 54.6004C9.81773 54.6004 10.3998 54.0183 10.3998 53.3004V6.5002C10.3998 5.78228 9.81773 5.2002 9.09981 5.2002Z" fill="white"/>
<path d="M15.5996 7.80176V26.0018H49.3997V7.80176H15.5996ZM46.7997 23.4018H18.1996V10.4018H46.7997V23.4018Z" fill="white"/>
<path d="M20.7998 27.3018H44.1999V29.9018H20.7998V27.3018Z" fill="white"/>
<path d="M24.7002 31.1982H40.3003V33.7983H24.7002V31.1982Z" fill="white"/>
<path d="M26 52H28.6V54.6H26V52Z" fill="white"/>
<path d="M31.2002 52H33.8002V54.6H31.2002V52Z" fill="white"/>
<path d="M36.3994 52H38.9994V54.6H36.3994V52Z" fill="white"/>
<path d="M68.8998 0C63.8763 0.00571287 59.8055 4.07648 59.7998 9.10004V64.09L68.8998 77.7401L77.9999 64.09V9.10004C77.9942 4.07648 73.9234 0.00571287 68.8998 0ZM70.1998 58.1105L68.8998 60.0605L67.5998 58.1105V18.2001H70.1998V58.1105ZM64.9998 57.9658L62.3998 60.5658V18.2001H64.9998V57.9658ZM62.7731 63.8691L66.0986 60.5455L68.8998 64.74L71.7011 60.5372L75.0266 63.8615L68.8998 73.0606L62.7731 63.8691ZM75.3999 60.562L72.7999 57.962V18.2001H75.3999V60.562ZM75.3999 15.6001H62.3998V13.0001H75.3999V15.6001ZM62.3998 10.4V9.10004C62.3998 5.51042 65.3102 2.60001 68.8998 2.60001C72.4895 2.60001 75.3999 5.51042 75.3999 9.10004V10.4H62.3998Z" fill="white"/>
</svg>
