<svg width="48" height="45" viewBox="0 0 48 45" fill="none" xmlns="http://www.w3.org/2000/svg">
    <path d="M36.7494 17.9806V30.1957C39.0799 28.267 39.9638 26.1776 39.9638 26.1776V16.7752L39.8835 16.6949L48.0001 13.4V10.1855C48.0001 10.1855 41.0086 13.0786 36.7494 14.8465V17.9806ZM24.6951 34.2138C12.6407 34.2138 9.42627 26.1776 9.42627 26.1776V16.8555L9.5066 16.6948L24.6951 22.963L36.7494 17.9806V30.1956C34.9815 31.6422 33.5349 32.3654 33.5349 32.3654C31.3652 33.4102 28.4721 34.2138 24.6951 34.2138Z" fill="#AAB1BA"/>
    <path d="M1.38965 10.3544L24.6947 0.710938L47.9998 10.3544C47.9998 10.3544 41.0083 13.2474 36.7491 15.0154V18.1495L24.6947 23.132L9.50626 16.8637L1.38965 13.569V10.3544ZM26.6233 11.3188C26.9447 11.0778 27.1055 10.7563 27.1055 10.3545C27.1055 9.47048 26.0608 8.74722 24.6946 8.74722C23.3284 8.74722 22.2838 9.47048 22.2838 10.3545C22.2838 11.2385 23.3284 11.9618 24.6946 11.9618C25.4983 11.9617 26.2216 11.7206 26.6233 11.3188Z" fill="#AAB1BA"/>
    <path d="M27.1059 10.1014C27.1059 10.4228 26.9452 10.7443 26.6237 11.0658C26.2219 11.4676 25.4986 11.7087 24.695 11.7087C23.3289 11.7087 22.2842 10.9854 22.2842 10.1014C22.2842 9.2174 23.3289 8.49414 24.695 8.49414C26.0612 8.49423 27.1059 9.21749 27.1059 10.1014Z" fill="#F2EDDA"/>
    <path d="M36.7496 35.8184C37.6336 35.8184 38.3569 36.5416 38.3569 37.4256C38.3569 38.3097 37.6336 39.0329 36.7496 39.0329C35.8656 39.0329 35.1423 38.3097 35.1423 37.4256C35.1423 36.5416 35.8657 35.8184 36.7496 35.8184Z" fill="#FF7474"/>
    <path d="M38.9757 44.2595C38.8149 44.2595 38.6543 44.0988 38.5739 43.9381L37.7703 40.7237V40.6433C37.7703 40.4826 37.931 40.3219 38.0917 40.2415C38.3328 40.1611 38.4935 40.3218 38.5739 40.5629L39.3775 43.7774V43.8577C39.3775 44.0184 39.2167 44.1791 39.056 44.2595H38.9757ZM32.5467 44.2595H32.4664C32.3056 44.1792 32.1449 44.0184 32.1449 43.8577V43.7774L32.9485 40.5629C33.0289 40.3218 33.1896 40.2415 33.4307 40.2415C33.5915 40.3218 33.7521 40.4826 33.7521 40.6433V40.7237L32.9485 43.9381C32.8681 44.0988 32.7075 44.2595 32.5467 44.2595ZM35.7612 44.2595C35.5201 44.2595 35.3593 44.0988 35.3593 43.8577V41.4468C35.3593 41.2057 35.5201 41.045 35.7612 41.045C36.0022 41.045 36.163 41.2057 36.163 41.4468V43.8577C36.163 44.0988 36.0022 44.2595 35.7612 44.2595ZM35.7612 39.4378C34.6361 39.4378 33.7521 38.5538 33.7521 37.4288C33.7521 36.4644 34.4754 35.6608 35.3594 35.4197V30.1962V17.9811V15.4095L32.3056 16.6952L23.8676 20.1508C23.7872 20.2311 23.6265 20.2311 23.5462 20.1508L0.241087 10.5074C0.0803308 10.427 0 10.2663 0 10.1056C0 9.9448 0.0803308 9.78414 0.241087 9.70371L23.5462 0.0602481C23.6265 -0.0200827 23.7872 -0.0200827 23.8676 0.0602481L47.1726 9.70371C47.3334 9.78405 47.4137 9.9448 47.4137 10.1056C47.4137 10.2663 47.3334 10.427 47.1726 10.5074L36.163 15.088V17.4186L46.6101 13.079V12.5165C46.6101 12.2754 46.7708 12.1147 47.0119 12.1147C47.253 12.1147 47.4137 12.2754 47.4137 12.5165V13.3201C47.4137 13.4809 47.3334 13.6415 47.1726 13.7219L36.163 18.2222V29.3925C37.7703 28.0263 38.4131 26.4191 38.5739 26.0976V20.5526C38.5739 20.3115 38.7346 20.1508 38.9757 20.1508C39.2168 20.1508 39.3775 20.3115 39.3775 20.5526V26.1779C39.3775 26.2583 39.3775 26.2583 39.3775 26.3387C39.3775 26.419 38.4935 28.7496 36.1631 30.4372V35.5C37.0471 35.6607 37.7704 36.4643 37.7704 37.509C37.7703 38.5538 36.8863 39.4378 35.7612 39.4378ZM35.7612 36.2233C35.1182 36.2233 34.5557 36.7858 34.5557 37.4288C34.5557 38.0717 35.1182 38.6342 35.7612 38.6342C36.4041 38.6342 36.9666 38.0717 36.9666 37.4288C36.9666 36.7858 36.4041 36.2233 35.7612 36.2233ZM1.44652 10.1056L23.7068 19.3472L34.6361 14.847L25.7963 11.5521C25.3141 11.9539 24.5908 12.195 23.7872 12.195C22.18 12.195 20.9745 11.311 20.9745 10.186C20.9745 9.06097 22.18 8.17696 23.7872 8.17696C25.3945 8.17696 26.6 9.06097 26.6 10.186C26.6 10.4271 26.5196 10.6682 26.4392 10.9092L35.8416 14.4452L46.128 10.186L23.8676 0.944264L1.44652 10.1056ZM23.7068 8.90012C22.5817 8.90012 21.6978 9.46263 21.6978 10.1056C21.6978 10.7485 22.5818 11.311 23.7068 11.311C24.3498 11.311 24.9926 11.0699 25.3141 10.7485L25.3944 10.6682C25.5552 10.5074 25.6355 10.2663 25.6355 10.0252C25.7159 9.46272 24.8319 8.90012 23.7068 8.90012ZM23.7068 34.6161C11.4917 34.6161 8.11652 26.4191 8.03619 26.3388C8.03619 26.2585 8.03619 26.2585 8.03619 26.178V20.5527C8.03619 20.3116 8.19695 20.1509 8.43803 20.1509C8.67912 20.1509 8.83987 20.3116 8.83987 20.5527V26.0977C9.16129 26.821 12.6169 33.6517 23.3051 33.8125V26.178C23.3051 25.9369 23.4658 25.7762 23.7069 25.7762C23.948 25.7762 24.1088 25.9369 24.1088 26.178V33.8125C28.0465 33.7321 30.7789 32.7678 32.386 31.9641C32.5468 31.8838 32.7879 31.9641 32.9485 32.1249C33.1093 32.2856 32.9485 32.5267 32.7878 32.6874C30.9394 33.5714 27.966 34.6161 23.7068 34.6161ZM23.7068 23.3653C23.6265 23.3653 23.6265 23.3653 23.5461 23.3653L0.241087 13.7219C0.0803308 13.6415 0 13.4809 0 13.3201V12.5165C0 12.2754 0.160756 12.1147 0.401842 12.1147C0.642929 12.1147 0.803685 12.2754 0.803685 12.5165V13.079L23.7069 22.5617L32.386 18.9454C32.6271 18.8651 32.7879 18.9454 32.9485 19.1865C33.0289 19.4276 32.9485 19.5884 32.7075 19.749L23.8676 23.4457C23.7872 23.3653 23.7872 23.3653 23.7068 23.3653Z" fill="#51565F"/>
</svg>