<svg width="16" height="27" viewBox="0 0 16 27" fill="none" xmlns="http://www.w3.org/2000/svg">
<path fill-rule="evenodd" clip-rule="evenodd" d="M8.51087 25.2394H11.4426C11.9305 25.2394 12.3261 25.6302 12.3261 26.1199C12.3261 26.6061 11.9345 27.0003 11.4426 27.0003H3.81829C3.33034 27.0003 2.93478 26.6095 2.93478 26.1199C2.93478 25.6336 3.32636 25.2394 3.81829 25.2394H6.75V21.6674C2.95054 21.2309 0 18.0037 0 14.0873V10.272C0 9.78579 0.394184 9.3916 0.880435 9.3916C1.36669 9.3916 1.76087 9.78579 1.76087 10.272V14.0873C1.76087 17.3289 4.38876 19.9568 7.63044 19.9568C10.8721 19.9568 13.5 17.3289 13.5 14.0873V10.272C13.5 9.78579 13.8942 9.3916 14.3804 9.3916C14.8667 9.3916 15.2609 9.78579 15.2609 10.272V14.0873C15.2609 18.0037 12.3103 21.2309 8.51087 21.6674V25.2394Z" fill="#097ABD"/>
<path fill-rule="evenodd" clip-rule="evenodd" d="M7.63069 0C10.0619 0 12.0329 1.97092 12.0329 4.40217V13.7935C12.0329 16.2247 10.0619 18.1957 7.63069 18.1957C5.19944 18.1957 3.22852 16.2247 3.22852 13.7935V4.40217C3.22852 1.97092 5.19944 0 7.63069 0Z" fill="#097ABD"/>
</svg>
