<svg width="36" height="36" viewBox="0 0 36 36" fill="none" xmlns="http://www.w3.org/2000/svg">
<path d="M34.6799 11.251H18.0005C14.2728 11.2474 11.2478 14.2663 11.2441 17.9941C11.243 19.1519 11.5397 20.2906 12.1058 21.3006L3.76611 6.99118C9.84037 -0.870499 21.1377 -2.31944 28.9994 3.75482C31.5242 5.70556 33.4847 8.29275 34.6799 11.251Z" fill="#F44336"/>
<path d="M36.0002 18.0007C35.9919 27.938 27.9382 35.9917 18.0009 36C17.2483 36.0028 16.4965 35.9527 15.751 35.85L23.8506 21.3756C25.707 18.1439 24.6004 14.0194 21.3757 12.1509C20.3548 11.5599 19.1956 11.2493 18.0159 11.251H34.6802C35.5561 13.3933 36.0045 15.6863 36.0002 18.0007Z" fill="#FFC107"/>
<path d="M23.8505 21.3752L15.7508 35.8496H15.7358C5.87924 34.6043 -1.10152 25.6044 0.143805 15.7478C0.54689 12.5575 1.79777 9.53354 3.7663 6.99072L12.1059 21.3001L12.1509 21.3752C14.0107 24.6059 18.1373 25.7173 21.368 23.8576C22.4 23.2635 23.2565 22.4071 23.8505 21.3752Z" fill="#4CAF50"/>
<path d="M23.8503 21.3756C21.9905 24.6064 17.8639 25.7178 14.6332 23.8581C13.6013 23.264 12.7448 22.4076 12.1508 21.3756L12.1058 21.3006C10.2833 18.0487 11.4421 13.9351 14.694 12.1126C15.7041 11.5466 16.8427 11.2499 18.0005 11.251H18.0155C19.1952 11.2493 20.3544 11.5599 21.3754 12.1509C24.6001 14.0195 25.7067 18.1439 23.8503 21.3756Z" fill="#F44336"/>
<path d="M23.8503 21.3756C21.9905 24.6064 17.8639 25.7178 14.6332 23.8581C13.6013 23.264 12.7448 22.4076 12.1508 21.3756L12.1058 21.3006C10.2833 18.0487 11.4421 13.9351 14.694 12.1126C15.7041 11.5466 16.8427 11.2499 18.0005 11.251H18.0155C19.1952 11.2493 20.3544 11.5599 21.3754 12.1509C24.6001 14.0195 25.7067 18.1439 23.8503 21.3756Z" fill="#2196F3"/>
<path d="M17.9749 25.5003C16.6673 25.5002 15.3827 25.1556 14.2505 24.5014C13.1089 23.8411 12.1608 22.8925 11.5011 21.7505C9.43016 18.1635 10.6592 13.5767 14.2462 11.5058C15.3876 10.8468 16.6825 10.5003 18.0004 10.501C22.1424 10.4977 25.5027 13.8529 25.5059 17.9949C25.507 19.3133 25.1603 20.6087 24.5011 21.7505C23.1495 24.0743 20.6631 25.5029 17.9749 25.5003ZM18.0138 12.0009C15.8615 11.9894 13.8687 13.135 12.7955 15.0008C11.1388 17.8736 12.1246 21.5457 14.9974 23.2025C17.8703 24.8593 21.5423 23.8735 23.1991 21.0006C24.8559 18.131 23.8727 14.4616 21.0031 12.8047C20.0945 12.2802 19.0643 12.0031 18.0153 12.001H18.0138V12.0009Z" fill="#FAFAFA"/>
</svg>
