<svg width="36" height="38" viewBox="0 0 36 38" fill="none" xmlns="http://www.w3.org/2000/svg">
<path d="M34.698 12.4766C33.9077 10.5893 32.3272 8.5578 31.0813 7.92094C31.9684 9.63652 32.5847 11.479 32.9082 13.3831V13.4156C30.8768 8.33467 27.4228 6.28926 24.6011 1.82656C24.4524 1.60343 24.3129 1.37564 24.1734 1.13856C24.0944 0.999103 24.034 0.878238 23.9735 0.76667C23.856 0.539383 23.7655 0.299116 23.7039 0.0507786C23.7041 0.0399033 23.7005 0.0292954 23.6937 0.0208014C23.6869 0.0123075 23.6774 0.00646541 23.6667 0.00429211C23.6518 -0.0014307 23.6352 -0.0014307 23.6202 0.00429211V0.0135894C23.6202 0.0228867 23.6063 0.0135894 23.6063 0.0135894V0.00429211C19.0878 2.65402 17.5491 7.56299 17.4097 10.0128C15.6014 10.1383 13.8729 10.8057 12.4495 11.9281C12.3011 11.802 12.1459 11.6841 11.9847 11.5748C11.5733 10.1335 11.5572 8.60815 11.9382 7.15856C10.274 7.96437 8.79542 9.10732 7.59636 10.5149C6.87582 9.61305 6.92695 6.62861 6.96879 6.0057C6.75673 6.08939 6.55416 6.19535 6.36447 6.3218C5.73211 6.77217 5.14096 7.27775 4.59798 7.83261C3.98478 8.45887 3.425 9.13528 2.92447 9.85478C1.76627 11.4965 0.9447 13.3514 0.507171 15.3123L0.47463 15.4378C0.44209 15.5912 0.316576 16.3861 0.297982 16.5535V16.6C0.141747 17.4193 0.0454203 18.249 0.00976563 19.0823L0.00976562 19.1753C0.0170372 23.6841 1.71445 28.0262 4.76688 31.3446C7.81932 34.6629 12.0049 36.7163 16.4974 37.0993C20.9899 37.4823 25.4627 36.167 29.0327 33.4133C32.6028 30.6595 35.0107 26.6673 35.7811 22.2248C35.8136 21.9924 35.8369 21.76 35.8648 21.5275C36.2379 18.4608 35.8384 15.3495 34.7026 12.4766H34.698ZM13.9325 26.576C14.0161 26.6224 14.0952 26.6689 14.1788 26.7015L14.1928 26.7108C14.1091 26.6674 14.0239 26.6209 13.9371 26.5713L13.9325 26.576ZM32.9129 13.411V13.397V13.4156V13.411Z" fill="url(#paint0_linear)"/>
<path d="M34.698 12.4775C33.9077 10.5902 32.3272 8.55874 31.0813 7.92188C31.9684 9.63745 32.5847 11.48 32.9082 13.384V13.4212C34.298 17.395 34.0982 21.7522 32.3504 25.5821C30.2864 30.0122 25.2845 34.554 17.4608 34.3308C9.00955 34.0984 1.56241 27.8227 0.16782 19.6039C-0.0832073 18.3023 0.16782 17.6515 0.297982 16.5963C0.124937 17.4129 0.0284474 18.244 0.00976562 19.0786L0.00976563 19.1716C0.0170372 23.6803 1.71445 28.0225 4.76688 31.3409C7.81932 34.6592 12.0049 36.7126 16.4974 37.0956C20.9899 37.4786 25.4627 36.1633 29.0327 33.4096C32.6028 30.6558 35.0107 26.6636 35.7811 22.2211C35.8136 21.9887 35.8369 21.7563 35.8648 21.5238C36.2379 18.4571 35.8384 15.3458 34.7026 12.4729L34.698 12.4775Z" fill="url(#paint1_radial)"/>
<path d="M34.698 12.4775C33.9077 10.5902 32.3272 8.55874 31.0813 7.92188C31.9684 9.63745 32.5847 11.48 32.9082 13.384V13.4212C34.298 17.395 34.0982 21.7522 32.3504 25.5821C30.2864 30.0122 25.2845 34.554 17.4608 34.3308C9.00955 34.0984 1.56241 27.8227 0.16782 19.6039C-0.0832073 18.3023 0.16782 17.6515 0.297982 16.5963C0.124937 17.4129 0.0284474 18.244 0.00976562 19.0786L0.00976563 19.1716C0.0170372 23.6803 1.71445 28.0225 4.76688 31.3409C7.81932 34.6592 12.0049 36.7126 16.4974 37.0956C20.9899 37.4786 25.4627 36.1633 29.0327 33.4096C32.6028 30.6558 35.0107 26.6636 35.7811 22.2211C35.8136 21.9887 35.8369 21.7563 35.8648 21.5238C36.2379 18.4571 35.8384 15.3458 34.7026 12.4729L34.698 12.4775Z" fill="url(#paint2_radial)"/>
<path d="M25.9397 14.5923C25.9862 14.6202 26.0141 14.6481 26.0512 14.676C25.5989 13.8727 25.0355 13.1372 24.3777 12.4912C18.7808 6.89418 22.9134 0.348883 23.6107 0.0188288V0.00488281C19.0922 2.65461 17.5535 7.56358 17.4141 10.0134C17.6233 9.99948 17.8324 9.98553 18.0463 9.98553C19.6511 9.98784 21.2267 10.4148 22.613 11.2231C23.9994 12.0314 25.1471 13.1923 25.9397 14.5877V14.5923Z" fill="url(#paint3_radial)"/>
<path d="M18.0587 15.7159C18.0261 16.1575 16.4456 17.7055 15.8878 17.7055C10.765 17.7055 9.9375 20.8015 9.9375 20.8015C10.1606 23.414 11.9829 25.5617 14.1771 26.7053L14.4839 26.8447C14.6605 26.9222 14.8372 26.9951 15.0138 27.0632C15.7677 27.3312 16.5574 27.4848 17.3567 27.5188C26.3379 27.9372 28.0765 16.7804 21.5963 13.5403C23.1249 13.3435 24.6722 13.7212 25.9381 14.6002C25.1456 13.2048 23.9979 12.044 22.6115 11.2357C21.2251 10.4274 19.6495 10.0004 18.0447 9.99805C17.8309 9.99805 17.6264 10.0073 17.4125 10.0213C15.6043 10.1467 13.8757 10.8142 12.4524 11.9365C12.7313 12.169 13.0381 12.4758 13.6936 13.1219C14.9162 14.3306 18.0494 15.5718 18.0633 15.7252L18.0587 15.7159Z" fill="url(#paint4_radial)"/>
<path d="M18.0587 15.7159C18.0261 16.1575 16.4456 17.7055 15.8878 17.7055C10.765 17.7055 9.9375 20.8015 9.9375 20.8015C10.1606 23.414 11.9829 25.5617 14.1771 26.7053L14.4839 26.8447C14.6605 26.9222 14.8372 26.9951 15.0138 27.0632C15.7677 27.3312 16.5574 27.4848 17.3567 27.5188C26.3379 27.9372 28.0765 16.7804 21.5963 13.5403C23.1249 13.3435 24.6722 13.7212 25.9381 14.6002C25.1456 13.2048 23.9979 12.044 22.6115 11.2357C21.2251 10.4274 19.6495 10.0004 18.0447 9.99805C17.8309 9.99805 17.6264 10.0073 17.4125 10.0213C15.6043 10.1467 13.8757 10.8142 12.4524 11.9365C12.7313 12.169 13.0381 12.4758 13.6936 13.1219C14.9162 14.3306 18.0494 15.5718 18.0633 15.7252L18.0587 15.7159Z" fill="url(#paint5_radial)"/>
<path d="M11.6141 11.328C11.7535 11.421 11.8791 11.5 11.986 11.5744C11.5746 10.1332 11.5585 8.60779 11.9395 7.1582C10.2753 7.96402 8.79672 9.10697 7.59766 10.5145C7.69063 10.5145 10.2939 10.468 11.6141 11.3234V11.328Z" fill="url(#paint6_radial)"/>
<path d="M0.17174 19.6017C1.56633 27.8158 9.00417 34.0915 17.4647 34.3286C25.2884 34.5517 30.2857 30.0053 32.3497 25.5798C34.0974 21.75 34.2973 17.3928 32.9075 13.419V13.4004V13.3818L32.9168 13.4143C33.549 17.5888 31.4292 21.6285 28.1101 24.3619L28.0962 24.3851C21.6345 29.652 15.4518 27.5648 14.1967 26.7094C14.1037 26.6692 14.0154 26.6258 13.9317 26.5793C10.1663 24.7803 8.60439 21.3449 8.93909 18.3977C8.04457 18.4112 7.16533 18.165 6.4079 17.6889C5.65047 17.2128 5.04736 16.5273 4.67163 15.7154C5.66131 15.1093 6.78971 14.7668 7.94929 14.7204C9.10888 14.674 10.261 14.9253 11.296 15.4504C13.4281 16.4172 15.8538 16.5123 18.0551 15.7154C18.0458 15.5666 14.9126 14.3208 13.6854 13.1122C13.0345 12.4706 12.7277 12.1638 12.4488 11.9314C12.3004 11.8053 12.1452 11.6874 11.984 11.5781C11.877 11.5037 11.7608 11.4247 11.6121 11.3317C10.3011 10.4764 7.6886 10.5229 7.60028 10.5229H7.59098C6.87974 9.62102 6.92622 6.63659 6.96806 6.01367C6.756 6.09736 6.55343 6.20332 6.36374 6.32978C5.73119 6.78162 5.14003 7.28876 4.59725 7.84524C3.97943 8.46946 3.41497 9.14432 2.90979 9.86275C1.7516 11.5045 0.930026 13.3593 0.492497 15.3203C0.4832 15.3575 -0.158313 18.1559 0.157795 19.6063L0.17174 19.6017Z" fill="url(#paint7_radial)"/>
<path d="M24.3825 12.4906C25.0402 13.1366 25.6036 13.8721 26.056 14.6754C26.149 14.7545 26.2419 14.8288 26.3256 14.8986C30.4164 18.664 28.278 23.9867 28.1153 24.3679C31.4298 21.6345 33.5543 17.5948 32.9174 13.4203C30.872 8.33932 27.4227 6.29391 24.5963 1.83121C24.4569 1.60808 24.3174 1.38029 24.1779 1.14321C24.0989 1.00375 24.0385 0.882887 23.978 0.771319C23.8586 0.542766 23.7665 0.300913 23.7038 0.0507786C23.704 0.0399033 23.7004 0.0292954 23.6936 0.0208014C23.6868 0.0123075 23.6772 0.00646541 23.6666 0.00429211C23.6516 -0.0014307 23.6351 -0.0014307 23.6201 0.00429211V0.0135894C23.6201 0.0228867 23.6061 0.0135894 23.6061 0.0135894C22.9089 0.348292 18.7716 6.89359 24.3778 12.4906H24.3825Z" fill="url(#paint8_radial)"/>
<path d="M26.3212 14.8976C26.2422 14.8233 26.1492 14.7489 26.0516 14.6745L25.94 14.5908C24.6722 13.7123 23.1231 13.3362 21.5935 13.5356C28.0738 16.7803 26.3352 27.9464 17.354 27.5187C16.5564 27.4858 15.7683 27.3338 15.0157 27.0678C14.8391 27.0058 14.6624 26.9345 14.4858 26.854C14.3835 26.8075 14.2859 26.761 14.1836 26.7145H14.1975C15.4527 27.5699 21.6354 29.6617 28.1063 24.3902L28.1156 24.3716C28.2783 23.9997 30.4167 18.6677 26.3305 14.9069L26.3212 14.8976Z" fill="url(#paint9_radial)"/>
<path d="M9.93489 20.8026C9.93489 20.8026 10.7716 17.7066 15.8852 17.7066C16.443 17.7066 18.0235 16.1586 18.0607 15.7077C15.8572 16.5086 13.4278 16.4152 11.2923 15.4474C10.2574 14.9223 9.10521 14.671 7.94563 14.7173C6.78605 14.7637 5.65765 15.1063 4.66797 15.7123C5.04502 16.5248 5.64988 17.2104 6.40907 17.6857C7.16827 18.161 8.04914 18.4057 8.94472 18.39C8.60537 21.3372 10.1627 24.7725 13.9327 26.5716C14.0164 26.6181 14.0954 26.6552 14.1791 26.6971C11.9803 25.5582 10.1627 23.4105 9.93489 20.7933V20.8026Z" fill="url(#paint10_radial)"/>
<path d="M34.6975 12.4766C33.9072 10.5893 32.3267 8.5578 31.0809 7.92094C31.9679 9.63652 32.5842 11.479 32.9078 13.3831V13.4156C30.8763 8.33467 27.4224 6.28926 24.6006 1.82656C24.4519 1.60343 24.3124 1.37564 24.173 1.13856C24.0939 0.999103 24.0335 0.878238 23.9731 0.76667C23.8556 0.539383 23.7651 0.299116 23.7035 0.0507786C23.7037 0.0399033 23.7001 0.0292954 23.6933 0.0208014C23.6865 0.0123075 23.6769 0.00646541 23.6663 0.00429211C23.6513 -0.0014307 23.6347 -0.0014307 23.6198 0.00429211V0.0135894C23.6198 0.0228867 23.6058 0.0135894 23.6058 0.0135894V0.00429211C19.0873 2.65402 17.5486 7.56299 17.4092 10.0128C17.6184 9.99888 17.8276 9.98494 18.0414 9.98494C19.6462 9.98725 21.2218 10.4142 22.6081 11.2225C23.9945 12.0309 25.1423 13.1917 25.9348 14.5871C24.6676 13.7113 23.1204 13.337 21.593 13.5365C28.0732 16.7813 26.3346 27.9473 17.3534 27.5196C16.5543 27.4871 15.7646 27.3352 15.0105 27.0687C14.8338 27.0067 14.6572 26.9355 14.4805 26.8549L14.1737 26.7154H14.1877C14.104 26.6751 14.0188 26.6317 13.932 26.5853C14.0157 26.6317 14.0947 26.6782 14.1784 26.7108C11.9796 25.5719 10.1619 23.4242 9.93416 20.807C9.93416 20.807 10.7709 17.7156 15.8844 17.7156C16.4423 17.7156 18.0228 16.1676 18.06 15.7167C18.0507 15.5773 14.9175 14.3221 13.6903 13.1228C13.0395 12.472 12.728 12.1698 12.4537 11.9374C12.3053 11.8113 12.1501 11.6934 11.9889 11.5841C11.5775 10.1428 11.5614 8.61744 11.9424 7.16786C10.2782 7.97367 8.7996 9.11662 7.60054 10.5242C6.88 9.62234 6.93113 6.63791 6.97297 6.01499C6.76091 6.09868 6.55834 6.20465 6.36865 6.3311C5.73629 6.78146 5.14514 7.28705 4.60216 7.84191C3.98896 8.46817 3.42918 9.14458 2.92865 9.86407C1.77045 11.5058 0.94888 13.3607 0.511351 15.3216L0.474162 15.4378C0.441621 15.5912 0.288216 16.4001 0.264973 16.5721C0.126311 17.4027 0.037826 18.241 0 19.0823V19.1753C0.00727157 23.6841 1.70468 28.0262 4.75712 31.3446C7.80956 34.6629 11.9952 36.7163 16.4876 37.0993C20.9801 37.4823 25.4529 36.167 29.023 33.4133C32.5931 30.6595 35.001 26.6673 35.7713 22.2248C35.8039 21.9924 35.8271 21.76 35.855 21.5275C36.2282 18.4608 35.8287 15.3495 34.6929 12.4766H34.6975ZM32.9078 13.4063V13.4203V13.4063Z" fill="url(#paint11_linear)"/>
<defs>
<linearGradient id="paint0_linear" x1="32.3294" y1="5.76049" x2="1.49333" y2="33.6127" gradientUnits="userSpaceOnUse">
<stop offset="0.048" stop-color="#FFF44F"/>
<stop offset="0.111" stop-color="#FFE847"/>
<stop offset="0.225" stop-color="#FFC830"/>
<stop offset="0.368" stop-color="#FF980E"/>
<stop offset="0.401" stop-color="#FF8B16"/>
<stop offset="0.462" stop-color="#FF672A"/>
<stop offset="0.534" stop-color="#FF3647"/>
<stop offset="0.705" stop-color="#E31587"/>
</linearGradient>
<radialGradient id="paint1_radial" cx="0" cy="0" r="1" gradientUnits="userSpaceOnUse" gradientTransform="translate(31.5336 4.13276) scale(37.5597)">
<stop offset="0.129" stop-color="#FFBD4F"/>
<stop offset="0.186" stop-color="#FFAC31"/>
<stop offset="0.247" stop-color="#FF9D17"/>
<stop offset="0.283" stop-color="#FF980E"/>
<stop offset="0.403" stop-color="#FF563B"/>
<stop offset="0.467" stop-color="#FF3750"/>
<stop offset="0.71" stop-color="#F5156C"/>
<stop offset="0.782" stop-color="#EB0878"/>
<stop offset="0.86" stop-color="#E50080"/>
</radialGradient>
<radialGradient id="paint2_radial" cx="0" cy="0" r="1" gradientUnits="userSpaceOnUse" gradientTransform="translate(17.809 19.4882) scale(37.5597)">
<stop offset="0.3" stop-color="#960E18"/>
<stop offset="0.351" stop-color="#B11927" stop-opacity="0.74"/>
<stop offset="0.435" stop-color="#DB293D" stop-opacity="0.343"/>
<stop offset="0.497" stop-color="#F5334B" stop-opacity="0.094"/>
<stop offset="0.53" stop-color="#FF3750" stop-opacity="0"/>
</radialGradient>
<radialGradient id="paint3_radial" cx="0" cy="0" r="1" gradientUnits="userSpaceOnUse" gradientTransform="translate(22.337 -4.39134) scale(27.2104)">
<stop offset="0.132" stop-color="#FFF44F"/>
<stop offset="0.252" stop-color="#FFDC3E"/>
<stop offset="0.506" stop-color="#FF9D12"/>
<stop offset="0.526" stop-color="#FF980E"/>
</radialGradient>
<radialGradient id="paint4_radial" cx="0" cy="0" r="1" gradientUnits="userSpaceOnUse" gradientTransform="translate(13.6527 29.2974) scale(17.8838)">
<stop offset="0.353" stop-color="#3A8EE6"/>
<stop offset="0.472" stop-color="#5C79F0"/>
<stop offset="0.669" stop-color="#9059FF"/>
<stop offset="1" stop-color="#C139E6"/>
</radialGradient>
<radialGradient id="paint5_radial" cx="0" cy="0" r="1" gradientUnits="userSpaceOnUse" gradientTransform="translate(19.8597 16.4082) rotate(-13.5916) scale(9.48189 11.1009)">
<stop offset="0.206" stop-color="#9059FF" stop-opacity="0"/>
<stop offset="0.278" stop-color="#8C4FF3" stop-opacity="0.064"/>
<stop offset="0.747" stop-color="#7716A8" stop-opacity="0.45"/>
<stop offset="0.975" stop-color="#6E008B" stop-opacity="0.6"/>
</radialGradient>
<radialGradient id="paint6_radial" cx="0" cy="0" r="1" gradientUnits="userSpaceOnUse" gradientTransform="translate(17.3315 2.59463) scale(12.8656)">
<stop stop-color="#FFE226"/>
<stop offset="0.121" stop-color="#FFDB27"/>
<stop offset="0.295" stop-color="#FFC82A"/>
<stop offset="0.502" stop-color="#FFA930"/>
<stop offset="0.732" stop-color="#FF7E37"/>
<stop offset="0.792" stop-color="#FF7139"/>
</radialGradient>
<radialGradient id="paint7_radial" cx="0" cy="0" r="1" gradientUnits="userSpaceOnUse" gradientTransform="translate(27.4467 -5.56658) scale(54.8917)">
<stop offset="0.113" stop-color="#FFF44F"/>
<stop offset="0.456" stop-color="#FF980E"/>
<stop offset="0.622" stop-color="#FF5634"/>
<stop offset="0.716" stop-color="#FF3647"/>
<stop offset="0.904" stop-color="#E31587"/>
</radialGradient>
<radialGradient id="paint8_radial" cx="0" cy="0" r="1" gradientUnits="userSpaceOnUse" gradientTransform="translate(22.8208 -2.51316) rotate(83.976) scale(40.2314 26.4035)">
<stop stop-color="#FFF44F"/>
<stop offset="0.06" stop-color="#FFE847"/>
<stop offset="0.168" stop-color="#FFC830"/>
<stop offset="0.304" stop-color="#FF980E"/>
<stop offset="0.356" stop-color="#FF8B16"/>
<stop offset="0.455" stop-color="#FF672A"/>
<stop offset="0.57" stop-color="#FF3647"/>
<stop offset="0.737" stop-color="#E31587"/>
</radialGradient>
<radialGradient id="paint9_radial" cx="0" cy="0" r="1" gradientUnits="userSpaceOnUse" gradientTransform="translate(17.0318 7.3594) scale(34.2698)">
<stop offset="0.137" stop-color="#FFF44F"/>
<stop offset="0.48" stop-color="#FF980E"/>
<stop offset="0.592" stop-color="#FF5634"/>
<stop offset="0.655" stop-color="#FF3647"/>
<stop offset="0.904" stop-color="#E31587"/>
</radialGradient>
<radialGradient id="paint10_radial" cx="0" cy="0" r="1" gradientUnits="userSpaceOnUse" gradientTransform="translate(26.0782 9.36647) scale(37.5081)">
<stop offset="0.094" stop-color="#FFF44F"/>
<stop offset="0.231" stop-color="#FFE141"/>
<stop offset="0.509" stop-color="#FFAF1E"/>
<stop offset="0.626" stop-color="#FF980E"/>
</radialGradient>
<linearGradient id="paint11_linear" x1="31.9597" y1="5.61183" x2="5.68991" y2="30.1896" gradientUnits="userSpaceOnUse">
<stop offset="0.167" stop-color="#FFF44F" stop-opacity="0.8"/>
<stop offset="0.266" stop-color="#FFF44F" stop-opacity="0.634"/>
<stop offset="0.489" stop-color="#FFF44F" stop-opacity="0.217"/>
<stop offset="0.6" stop-color="#FFF44F" stop-opacity="0"/>
</linearGradient>
</defs>
</svg>
