<svg width="36" height="36" viewBox="0 0 36 36" fill="none" xmlns="http://www.w3.org/2000/svg">
<path d="M12.0797 28.1391C10.0828 25.7906 8.80313 22.3172 8.71875 18.4219V17.5781C8.80313 13.6828 10.0969 10.2094 12.0797 7.86094C14.6672 4.51406 18.4641 3.00937 22.7531 3.00937C25.3969 3.00937 27.8859 3.19219 29.9953 4.59844C26.8313 1.74375 22.6547 0.0140625 18.0703 0H18C8.05781 0 0 8.05781 0 18C0 27.6469 7.59375 35.5359 17.1422 35.9859C17.4234 36 17.7188 36 18 36C22.6125 36 26.8172 34.2703 29.9953 31.4156C27.8859 32.8219 25.5375 32.8781 22.8938 32.8781C18.6187 32.8922 14.6531 31.5 12.0797 28.1391Z" fill="url(#paint0_linear)"/>
<path d="M12.0801 7.86133C13.7254 5.90664 15.8629 4.73945 18.1973 4.73945C23.4426 4.73945 27.6895 10.6738 27.6895 18.0145C27.6895 25.3551 23.4426 31.2895 18.1973 31.2895C15.8629 31.2895 13.7395 30.1082 12.0801 28.1676C14.6676 31.5145 18.5066 33.652 22.7816 33.652C25.4113 33.652 27.8863 32.8504 29.9957 31.4441C33.6801 28.1254 36.0004 23.3301 36.0004 18.0004C36.0004 12.6707 33.6801 7.87539 29.9957 4.58477C27.8863 3.17852 25.4254 2.37695 22.7816 2.37695C18.4926 2.37695 14.6535 4.50039 12.0801 7.86133Z" fill="url(#paint1_linear)"/>
<defs>
<linearGradient id="paint0_linear" x1="14.9986" y1="0.5868" x2="14.9986" y2="35.4762" gradientUnits="userSpaceOnUse">
<stop offset="0.3" stop-color="#FF1B2D"/>
<stop offset="0.4381" stop-color="#FA1A2C"/>
<stop offset="0.5939" stop-color="#ED1528"/>
<stop offset="0.7581" stop-color="#D60E21"/>
<stop offset="0.9272" stop-color="#B70519"/>
<stop offset="1" stop-color="#A70014"/>
</linearGradient>
<linearGradient id="paint1_linear" x1="24.0378" y1="2.64373" x2="24.0378" y2="33.5015" gradientUnits="userSpaceOnUse">
<stop stop-color="#9C0000"/>
<stop offset="0.7" stop-color="#FF4B4B"/>
</linearGradient>
</defs>
</svg>
