<svg width="37" height="37" viewBox="0 0 37 37" fill="none" xmlns="http://www.w3.org/2000/svg">
<g filter="url(#filter0_d)">
<path fill-rule="evenodd" clip-rule="evenodd" d="M18.0029 4.99337C11.3756 4.99337 6.00293 10.3666 6.00293 16.9947C6.00293 23.6229 11.3756 28.9961 18.0029 28.9961C24.6303 28.9961 30.0029 23.6229 30.0029 16.9947C30.0029 10.3666 24.6303 4.99337 18.0029 4.99337ZM24.8509 18.5464L18.8509 12.5457C18.3823 12.077 17.6225 12.077 17.1539 12.5457L11.1539 18.5464C10.6853 19.015 10.6853 19.7749 11.1539 20.2436C11.6225 20.7123 12.3823 20.7123 12.8509 20.2436L18.0024 15.0916L23.1539 20.2436C23.6225 20.7123 24.3823 20.7123 24.8509 20.2436C25.3195 19.7749 25.3195 19.015 24.8509 18.5464Z" fill="white"/>
</g>
<defs>
<filter id="filter0_d" x="0.00292969" y="0.994141" width="36" height="36.0027" filterUnits="userSpaceOnUse" color-interpolation-filters="sRGB">
<feFlood flood-opacity="0" result="BackgroundImageFix"/>
<feColorMatrix in="SourceAlpha" type="matrix" values="0 0 0 0 0 0 0 0 0 0 0 0 0 0 0 0 0 0 127 0"/>
<feOffset dy="2"/>
<feGaussianBlur stdDeviation="3"/>
<feColorMatrix type="matrix" values="0 0 0 0 0 0 0 0 0 0 0 0 0 0 0 0 0 0 0.2 0"/>
<feBlend mode="normal" in2="BackgroundImageFix" result="effect1_dropShadow"/>
<feBlend mode="normal" in="SourceGraphic" in2="effect1_dropShadow" result="shape"/>
</filter>
</defs>
</svg>
