<svg width="48" height="52" viewBox="0 0 48 52" fill="none" xmlns="http://www.w3.org/2000/svg">
<path d="M47.4762 7.33148V43.9861C47.4762 45.8189 46.2543 47.2152 44.4216 47.477L41.367 42.3279L41.2798 42.2406C41.8907 41.5424 42.1525 40.5825 42.1525 39.6224C42.1525 37.1788 40.2325 35.2588 37.7888 35.2588C35.3451 35.2588 33.4251 37.1787 33.4251 39.6224C33.4251 40.5825 33.7742 41.4552 34.2978 42.1534L34.2106 42.2406L31.2433 47.477H10.8215C8.90148 47.477 7.33057 45.9061 7.33057 43.9861V14.3134V3.8406V0.349609H40.4943C44.3343 0.349609 47.4762 3.49144 47.4762 7.33148ZM38.3998 44.0734L40.4071 47.477H35.3452L37.3525 44.0734V43.9861C37.5271 43.9861 37.6143 43.9861 37.7889 43.9861C37.9635 43.9861 38.138 43.9861 38.3125 43.9861L38.3998 44.0734Z" fill="#F2EDDA"/>
<path d="M7.33099 0.348633V3.83952V14.3123C3.49095 14.3123 0.349121 11.1704 0.349121 7.3304C0.349121 3.49036 3.49105 0.348633 7.33099 0.348633Z" fill="#AAB1BA"/>
<path d="M41.3671 42.2407C41.978 41.5424 42.2398 40.5825 42.2398 39.6225C42.2398 37.1789 40.3198 35.2588 37.8761 35.2588C35.4325 35.2588 33.5124 37.1788 33.5124 39.6225C33.5124 40.5825 33.7742 41.4552 34.3851 42.1534L34.298 42.2407L31.3307 47.477H35.4326L37.4399 44.0734V43.9862C37.6145 43.9862 37.7017 43.9862 37.8763 43.9862C38.0509 43.9862 38.2254 43.9862 38.3999 43.9862C39.4472 43.8989 40.3199 43.3753 41.0181 42.6771C40.3199 43.3753 39.4472 43.8116 38.3999 43.9862V44.0734L40.4072 47.477H43.9855C44.1601 47.477 44.2473 47.477 44.4219 47.477C44.2473 47.477 44.1601 47.477 43.9855 47.477H40.4072L42.5018 50.9679L43.5491 49.3098L45.469 49.2225L44.4218 47.477L41.3671 42.2407ZM41.1053 42.5898L41.018 42.6771L41.1053 42.5898ZM35.3452 47.477L33.2507 50.9679L32.2034 49.3098L30.2834 49.2225L31.3307 47.477H35.3452Z" fill="#80D6FA"/>
<path d="M33.2509 51.4037C33.0763 51.4037 32.9891 51.3165 32.9018 51.2292L31.9418 49.7456L30.1963 49.6584C30.0217 49.6584 29.9345 49.5711 29.8473 49.3965C29.76 49.222 29.76 49.1347 29.8473 48.9601L32.4654 44.422C32.5527 44.2474 32.8145 44.1602 33.0763 44.2474C33.2509 44.3346 33.3381 44.5965 33.2509 44.8583L30.9818 48.7856L32.2036 48.8728C32.3782 48.8728 32.4654 48.96 32.5527 49.0474L33.2509 50.0947L35.52 46.2546C35.6073 46.08 35.8691 45.9928 36.1309 46.08C36.3055 46.1673 36.3927 46.4291 36.3055 46.6909L33.6873 51.1418C33.6001 51.3165 33.4255 51.4037 33.2509 51.4037ZM42.5019 51.4037C42.3273 51.4037 42.2401 51.3165 42.1528 51.1419L39.5347 46.691C39.4474 46.5164 39.4474 46.2546 39.7092 46.0801C39.8838 45.9929 40.1456 45.9929 40.3201 46.2547L42.5019 50.0948L43.2001 49.0475C43.2874 48.9602 43.3747 48.8729 43.5492 48.8729L44.771 48.7857L42.5019 44.9456C42.4147 44.771 42.4147 44.5092 42.6765 44.3347C42.8511 44.2475 43.1129 44.2475 43.2874 44.5093L45.9056 48.9602C45.9928 49.1348 45.9928 49.2221 45.9056 49.3966C45.8183 49.5712 45.731 49.6585 45.5565 49.6585L43.811 49.7457L42.851 51.2294C42.7637 51.3165 42.5891 51.4037 42.5019 51.4037ZM27.4036 47.9129H10.8218C8.64003 47.9129 6.89453 46.1674 6.89453 43.9856V4.27634C5.41086 4.45092 4.27634 5.76002 4.27634 7.33093C4.27634 7.59275 4.10176 7.76733 3.83994 7.76733C3.57812 7.76733 3.40354 7.59275 3.40354 7.33093C3.40354 5.14914 5.14904 3.40365 7.33083 3.40365C7.59265 3.40365 7.76723 3.57823 7.76723 3.84004V43.9856C7.76723 45.6437 9.16356 47.0402 10.8218 47.0402H27.4036C27.6655 47.0402 27.84 47.2147 27.84 47.4766C27.84 47.7383 27.6655 47.9129 27.4036 47.9129ZM47.0401 46.1674C46.9528 46.1674 46.8655 46.1674 46.7782 46.0801C46.6037 45.9929 46.5164 45.7311 46.6037 45.4693C46.8655 45.0329 47.0401 44.5092 47.0401 43.9856V7.33093C47.0401 3.7527 44.0728 0.785457 40.4946 0.785457H7.33083C3.7526 0.785457 0.785354 3.7527 0.785354 7.33093C0.785354 9.6873 2.00721 11.7819 4.10176 13.0037C4.27634 13.0909 4.36358 13.3528 4.27634 13.6146C4.1891 13.7892 3.92728 13.8764 3.66546 13.7892C1.39633 12.4801 2.3654e-09 10.0365 2.3654e-09 7.41827C-0.000102271 3.31641 3.3163 0 7.41807 0H40.5818C44.6837 0 48 3.31641 48 7.41817V44.0728C48 44.771 47.8254 45.3819 47.4764 45.9928C47.3019 46.0801 47.1273 46.1674 47.0401 46.1674ZM37.8764 44.422C35.2582 44.422 33.0764 42.2402 33.0764 39.622C33.0764 37.0038 35.2582 34.822 37.8764 34.822C40.4946 34.822 42.6764 37.0038 42.6764 39.622C42.6764 42.2402 40.4946 44.422 37.8764 44.422ZM37.8764 35.6946C35.6946 35.6946 33.9491 37.4401 33.9491 39.6219C33.9491 41.8037 35.6946 43.5492 37.8764 43.5492C40.0582 43.5492 41.8037 41.8037 41.8037 39.6219C41.8037 37.4401 40.0582 35.6946 37.8764 35.6946ZM26.531 40.931H23.04C22.8654 40.931 22.7781 40.8438 22.6909 40.7564C22.6037 40.6692 22.6037 40.4946 22.6909 40.32C22.8655 39.8836 23.04 39.4473 23.04 39.1855C22.5163 39.2727 21.5563 40.0582 20.7708 40.7564C20.6836 40.8437 20.4218 40.931 20.3344 40.8437C20.1599 40.7564 20.0726 40.5818 20.0726 40.4073V39.0982C19.6362 39.4472 18.8508 40.0582 18.2399 40.7563C18.0653 40.9309 17.8908 40.9309 17.7162 40.8435C17.5417 40.7563 17.4544 40.4945 17.5417 40.3199C17.9781 39.0981 19.0253 35.6944 18.0653 34.3853C17.8035 34.0363 17.5417 33.9489 17.018 33.9489C16.1453 33.9489 15.5344 34.298 15.1853 34.8216C14.5744 35.7816 14.7489 37.527 15.7089 39.3598C15.7962 39.5344 15.7089 39.7962 15.5344 39.9706C15.3598 40.0579 15.098 39.9706 14.9235 39.7961C13.8762 37.6143 13.7016 35.6942 14.4871 34.3851C15.0107 33.5124 15.9707 33.076 17.1053 33.076C17.8907 33.076 18.5016 33.3378 18.8508 33.9487C19.7235 35.1706 19.2872 37.5269 18.8508 39.0979C20.1599 38.0506 20.5089 38.1378 20.6835 38.2252C20.9453 38.3124 21.0325 38.487 21.0325 38.836V39.6215C21.6434 39.0979 22.6035 38.3996 23.2143 38.3996C23.4762 38.3996 23.738 38.4869 23.9126 38.7487C24.1744 39.0977 23.9998 39.7087 23.9126 40.145H26.7053C26.9671 40.145 27.1417 40.3196 27.1417 40.5814C27.1417 40.8432 26.7928 40.931 26.531 40.931ZM37.0037 28.7128H28.2763C28.0145 28.7128 27.8399 28.5383 27.8399 28.2764C27.8399 28.0146 28.0145 27.84 28.2763 27.84H37.0036C37.2654 27.84 37.44 28.0146 37.44 28.2764C37.44 28.5383 37.2655 28.7128 37.0037 28.7128ZM24.7855 28.7128H14.3127C14.0509 28.7128 13.8763 28.5383 13.8763 28.2764C13.8763 28.0146 14.0509 27.84 14.3127 27.84H24.7855C25.0473 27.84 25.2219 28.0146 25.2219 28.2764C25.2219 28.5383 25.0473 28.7128 24.7855 28.7128ZM40.4946 23.4765H35.2582C34.9964 23.4765 34.8218 23.3019 34.8218 23.0401C34.8218 22.7782 34.9964 22.6037 35.2582 22.6037H40.4946C40.7564 22.6037 40.931 22.7782 40.931 23.0401C40.931 23.3019 40.7564 23.4765 40.4946 23.4765ZM31.7673 23.4765H23.04C22.7781 23.4765 22.6036 23.3019 22.6036 23.0401C22.6036 22.7782 22.7781 22.6037 23.04 22.6037H31.7672C32.029 22.6037 32.2036 22.7782 32.2036 23.0401C32.2036 23.3019 32.0291 23.4765 31.7673 23.4765ZM19.5491 23.4765H14.3127C14.0509 23.4765 13.8763 23.3019 13.8763 23.0401C13.8763 22.7782 14.0509 22.6037 14.3127 22.6037H19.5491C19.8109 22.6037 19.9855 22.7782 19.9855 23.0401C19.9855 23.3019 19.8109 23.4765 19.5491 23.4765ZM38.7491 18.2401H30.0218C29.76 18.2401 29.5854 18.0655 29.5854 17.8037C29.5854 17.5419 29.76 17.3673 30.0218 17.3673H38.7491C39.0109 17.3673 39.1855 17.5419 39.1855 17.8037C39.1855 18.0655 39.0109 18.2401 38.7491 18.2401ZM26.531 18.2401H14.3127C14.0509 18.2401 13.8763 18.0655 13.8763 17.8037C13.8763 17.5419 14.0509 17.3673 14.3127 17.3673H26.531C26.7928 17.3673 26.9674 17.5419 26.9674 17.8037C26.9674 18.0655 26.7928 18.2401 26.531 18.2401ZM33.5127 13.0037H31.7672C31.5054 13.0037 31.3308 12.8291 31.3308 12.5673C31.3308 12.3055 31.5054 12.1309 31.7672 12.1309H33.5127C33.7745 12.1309 33.9491 12.3055 33.9491 12.5673C33.9491 12.8291 33.7745 13.0037 33.5127 13.0037ZM28.2763 13.0037H21.2945C21.0326 13.0037 20.8581 12.8291 20.8581 12.5673C20.8581 12.3055 21.0326 12.1309 21.2945 12.1309H28.2763C28.5382 12.1309 28.7127 12.3055 28.7127 12.5673C28.7127 12.8291 28.5382 13.0037 28.2763 13.0037ZM17.8036 13.0037H14.3127C14.0509 13.0037 13.8763 12.8291 13.8763 12.5673C13.8763 12.3055 14.0509 12.1309 14.3127 12.1309H17.8036C18.0654 12.1309 18.24 12.3055 18.24 12.5673C18.24 12.8291 18.0654 13.0037 17.8036 13.0037Z" fill="#51565F"/>
</svg>
