<svg width="37" height="37" viewBox="0 0 37 37" fill="none" xmlns="http://www.w3.org/2000/svg">
<path d="M32.4945 26.7942C32.0145 27.0452 31.5195 27.2664 31.0123 27.4565C29.3979 28.0606 27.6877 28.3684 25.9639 28.365C19.3095 28.365 13.513 23.7876 13.513 17.9137C13.5215 17.1259 13.7401 16.3546 14.1463 15.6795C14.5524 15.0044 15.1314 14.4499 15.8234 14.0732C9.80469 14.3264 8.25781 20.5982 8.25781 24.2728C8.25781 34.6621 17.833 35.7154 19.8959 35.7154C21.0083 35.7154 22.6859 35.392 23.6928 35.0742L23.877 35.0123C27.7516 33.6728 31.0547 31.0542 33.2427 27.5873C33.3097 27.4817 33.3396 27.3568 33.3277 27.2323C33.3158 27.1078 33.2627 26.9909 33.1769 26.8999C33.0911 26.8089 32.9774 26.7492 32.8539 26.73C32.7303 26.7109 32.6038 26.7334 32.4945 26.7942Z" fill="url(#paint0_linear)"/>
<path opacity="0.35" d="M32.4945 26.7942C32.0145 27.0452 31.5195 27.2664 31.0123 27.4565C29.3979 28.0606 27.6877 28.3684 25.9639 28.365C19.3095 28.365 13.513 23.7876 13.513 17.9137C13.5215 17.1259 13.7401 16.3546 14.1463 15.6795C14.5524 15.0044 15.1314 14.4499 15.8234 14.0732C9.80469 14.3264 8.25781 20.5982 8.25781 24.2728C8.25781 34.6621 17.833 35.7154 19.8959 35.7154C21.0083 35.7154 22.6859 35.392 23.6928 35.0742L23.877 35.0123C27.7516 33.6728 31.0547 31.0542 33.2427 27.5873C33.3097 27.4817 33.3396 27.3568 33.3277 27.2323C33.3158 27.1078 33.2627 26.9909 33.1769 26.8999C33.0911 26.8089 32.9774 26.7492 32.8539 26.73C32.7303 26.7109 32.6038 26.7334 32.4945 26.7942Z" fill="url(#paint1_radial)"/>
<path d="M14.8692 33.9495C13.6149 33.171 12.5279 32.151 11.6714 30.9486C10.6951 29.6111 10.0233 28.0762 9.70311 26.4516C9.38289 24.8269 9.422 23.1519 9.81768 21.544C10.2134 19.9361 10.956 18.4342 11.9936 17.1437C13.0312 15.8532 14.3386 14.8053 15.824 14.0736C16.2628 13.8669 17.0123 13.4928 18.0093 13.5111C18.7118 13.5162 19.4035 13.6839 20.0302 14.0011C20.657 14.3183 21.2018 14.7763 21.622 15.3392C22.1899 16.0974 22.503 17.0161 22.5164 17.9633C22.5164 17.9338 25.956 6.76953 11.2664 6.76953C5.09292 6.76953 0.0163591 12.628 0.0163591 17.7678C-0.00799165 20.4867 0.573759 23.1769 1.71933 25.6428C3.59151 29.6374 6.86544 32.8053 10.9194 34.5451C14.9734 36.2848 19.5251 36.4753 23.7103 35.0802C22.2449 35.5422 20.6967 35.6809 19.1726 35.4867C17.6484 35.2924 16.1845 34.7699 14.8818 33.9552L14.8692 33.9495Z" fill="url(#paint2_linear)"/>
<path opacity="0.41" d="M14.8692 33.9495C13.6149 33.171 12.5279 32.151 11.6714 30.9486C10.6951 29.6111 10.0233 28.0762 9.70311 26.4516C9.38289 24.8269 9.422 23.1519 9.81768 21.544C10.2134 19.9361 10.956 18.4342 11.9936 17.1437C13.0312 15.8532 14.3386 14.8053 15.824 14.0736C16.2628 13.8669 17.0123 13.4928 18.0093 13.5111C18.7118 13.5162 19.4035 13.6839 20.0302 14.0011C20.657 14.3183 21.2018 14.7763 21.622 15.3392C22.1899 16.0974 22.503 17.0161 22.5164 17.9633C22.5164 17.9338 25.956 6.76953 11.2664 6.76953C5.09292 6.76953 0.0163591 12.628 0.0163591 17.7678C-0.00799165 20.4867 0.573759 23.1769 1.71933 25.6428C3.59151 29.6374 6.86544 32.8053 10.9194 34.5451C14.9734 36.2848 19.5251 36.4753 23.7103 35.0802C22.2449 35.5422 20.6967 35.6809 19.1726 35.4867C17.6484 35.2924 16.1845 34.7699 14.8818 33.9552L14.8692 33.9495Z" fill="url(#paint3_radial)"/>
<path d="M21.4214 20.9334C21.3075 21.0811 20.9573 21.285 20.9573 21.7294C20.9573 22.0964 21.1964 22.4494 21.6211 22.7461C23.6433 24.1523 27.4556 23.9667 27.4655 23.9667C28.9639 23.9631 30.4339 23.5576 31.7222 22.7925C33.0219 22.0336 34.1005 20.9481 34.8512 19.6437C35.6018 18.3393 35.9983 16.8612 36.0014 15.3563C36.038 12.2048 34.8764 10.1095 34.4067 9.18141C31.4269 3.3525 24.9947 8.81216e-08 18 8.81216e-08C13.2696 -0.000467658 8.72921 1.86117 5.36074 5.18227C1.99227 8.50338 0.0665207 13.017 0 17.7469C0.0675 12.6084 5.175 8.45859 11.25 8.45859C11.7422 8.45859 14.5491 8.50641 17.1562 9.87469C19.4541 11.0813 20.6578 12.5381 21.4945 13.9823C22.3636 15.4828 22.5183 17.3784 22.5183 18.1336C22.5183 18.8888 22.133 20.0081 21.4214 20.9334Z" fill="url(#paint4_radial)"/>
<path d="M21.4214 20.9334C21.3075 21.0811 20.9573 21.285 20.9573 21.7294C20.9573 22.0964 21.1964 22.4494 21.6211 22.7461C23.6433 24.1523 27.4556 23.9667 27.4655 23.9667C28.9639 23.9631 30.4339 23.5576 31.7222 22.7925C33.0219 22.0336 34.1005 20.9481 34.8512 19.6437C35.6018 18.3393 35.9983 16.8612 36.0014 15.3563C36.038 12.2048 34.8764 10.1095 34.4067 9.18141C31.4269 3.3525 24.9947 8.81216e-08 18 8.81216e-08C13.2696 -0.000467658 8.72921 1.86117 5.36074 5.18227C1.99227 8.50338 0.0665207 13.017 0 17.7469C0.0675 12.6084 5.175 8.45859 11.25 8.45859C11.7422 8.45859 14.5491 8.50641 17.1562 9.87469C19.4541 11.0813 20.6578 12.5381 21.4945 13.9823C22.3636 15.4828 22.5183 17.3784 22.5183 18.1336C22.5183 18.8888 22.133 20.0081 21.4214 20.9334Z" fill="url(#paint5_radial)"/>
<defs>
<linearGradient id="paint0_linear" x1="8.25781" y1="24.8971" x2="33.3369" y2="24.8971" gradientUnits="userSpaceOnUse">
<stop stop-color="#0C59A4"/>
<stop offset="1" stop-color="#114A8B"/>
</linearGradient>
<radialGradient id="paint1_radial" cx="0" cy="0" r="1" gradientUnits="userSpaceOnUse" gradientTransform="translate(22.1094 25.0948) scale(13.4128 12.7422)">
<stop offset="0.72" stop-opacity="0"/>
<stop offset="0.95" stop-opacity="0.53"/>
<stop offset="1"/>
</radialGradient>
<linearGradient id="paint2_linear" x1="21.48" y1="14.0188" x2="5.81573" y2="31.0808" gradientUnits="userSpaceOnUse">
<stop stop-color="#1B9DE2"/>
<stop offset="0.16" stop-color="#1595DF"/>
<stop offset="0.67" stop-color="#0680D7"/>
<stop offset="1" stop-color="#0078D4"/>
</linearGradient>
<radialGradient id="paint3_radial" cx="0" cy="0" r="1" gradientUnits="userSpaceOnUse" gradientTransform="translate(9.92824 27.9854) rotate(-81.3844) scale(20.1693 16.2948)">
<stop offset="0.76" stop-opacity="0"/>
<stop offset="0.95" stop-opacity="0.5"/>
<stop offset="1"/>
</radialGradient>
<radialGradient id="paint4_radial" cx="0" cy="0" r="1" gradientUnits="userSpaceOnUse" gradientTransform="translate(3.63691 6.66236) rotate(92.2906) scale(28.4895 60.6767)">
<stop stop-color="#35C1F1"/>
<stop offset="0.11" stop-color="#34C1ED"/>
<stop offset="0.23" stop-color="#2FC2DF"/>
<stop offset="0.31" stop-color="#2BC3D2"/>
<stop offset="0.67" stop-color="#36C752"/>
</radialGradient>
<radialGradient id="paint5_radial" cx="0" cy="0" r="1" gradientUnits="userSpaceOnUse" gradientTransform="translate(33.7602 10.8852) rotate(73.7398) scale(13.6884 11.1314)">
<stop stop-color="#66EB6E"/>
<stop offset="1" stop-color="#66EB6E" stop-opacity="0"/>
</radialGradient>
</defs>
</svg>
