<svg width="14" height="12" viewBox="0 0 14 12" fill="none" xmlns="http://www.w3.org/2000/svg">
<path d="M0.464345 11.9999C0.399215 12.0003 0.334739 11.9869 0.275155 11.9606C0.215571 11.9343 0.162229 11.8957 0.118635 11.8473C0.0750401 11.7989 0.0421809 11.7418 0.0222169 11.6798C0.00225287 11.6178 -0.00436379 11.5523 0.00280182 11.4876L0.35819 8.25679C0.370841 8.15353 0.418007 8.05757 0.492038 7.98448L8.04289 0.433629C8.18007 0.29617 8.34302 0.187115 8.5224 0.112708C8.70178 0.0383 8.89408 0 9.08828 0C9.28248 0 9.47478 0.0383 9.65416 0.112708C9.83354 0.187115 9.99649 0.29617 10.1337 0.433629L11.5691 1.86903C11.7065 2.00621 11.8156 2.16916 11.89 2.34854C11.9644 2.52793 12.0027 2.72022 12.0027 2.91442C12.0027 3.10863 11.9644 3.30092 11.89 3.48031C11.8156 3.65969 11.7065 3.82263 11.5691 3.95982L4.02284 11.5061C3.94975 11.5801 3.85379 11.6272 3.75053 11.6399L0.51973 11.9953L0.464345 11.9999ZM1.26281 8.51525L0.985889 11.0168L3.48745 10.7399L10.9183 3.30904C10.9699 3.25759 11.0109 3.19645 11.0389 3.12913C11.0668 3.0618 11.0812 2.98963 11.0812 2.91673C11.0812 2.84384 11.0668 2.77166 11.0389 2.70434C11.0109 2.63702 10.9699 2.57587 10.9183 2.52442L9.47829 1.0844C9.42683 1.03277 9.36569 0.991802 9.29837 0.963848C9.23105 0.935894 9.15887 0.921505 9.08597 0.921505C9.01308 0.921505 8.9409 0.935894 8.87358 0.963848C8.80626 0.991802 8.74512 1.03277 8.69366 1.0844L1.26281 8.51525Z" fill="#424242"/>
<path d="M10.1566 5.17392C10.0959 5.17428 10.0357 5.16263 9.97945 5.13966C9.92322 5.1167 9.87207 5.08285 9.82895 5.04008L6.96276 2.16466C6.91973 2.12163 6.88559 2.07054 6.8623 2.01431C6.83901 1.95809 6.82703 1.89783 6.82703 1.83697C6.82703 1.77611 6.83901 1.71585 6.8623 1.65962C6.88559 1.60339 6.91973 1.5523 6.96276 1.50927C7.0058 1.46624 7.05688 1.4321 7.11311 1.40881C7.16934 1.38552 7.2296 1.37354 7.29046 1.37354C7.35132 1.37354 7.41158 1.38552 7.46781 1.40881C7.52403 1.4321 7.57512 1.46624 7.61815 1.50927L10.4936 4.38469C10.5368 4.42759 10.5712 4.47864 10.5946 4.53488C10.618 4.59113 10.6301 4.65145 10.6301 4.71238C10.6301 4.77331 10.618 4.83364 10.5946 4.88988C10.5712 4.94612 10.5368 4.99717 10.4936 5.04008C10.4493 5.08397 10.3967 5.11846 10.3388 5.14147C10.2809 5.16447 10.2189 5.17551 10.1566 5.17392Z" fill="#5181B8"/>
<path d="M6.9653 4.38578L3.37207 7.979L4.02479 8.63172L7.61802 5.0385L6.9653 4.38578Z" fill="#424242"/>
<path d="M13.3874 12.0002H6.00268C5.88027 12.0002 5.76288 11.9516 5.67632 11.8651C5.58976 11.7785 5.54114 11.6611 5.54114 11.5387C5.54114 11.4163 5.58976 11.2989 5.67632 11.2123C5.76288 11.1258 5.88027 11.0771 6.00268 11.0771H13.3874C13.5098 11.0771 13.6272 11.1258 13.7137 11.2123C13.8003 11.2989 13.8489 11.4163 13.8489 11.5387C13.8489 11.6611 13.8003 11.7785 13.7137 11.8651C13.6272 11.9516 13.5098 12.0002 13.3874 12.0002Z" fill="#424242"/>
</svg>
