<svg width="36" height="36" viewBox="0 0 36 36" fill="none" xmlns="http://www.w3.org/2000/svg">
    <path fill-rule="evenodd" clip-rule="evenodd" d="M18 36C27.9252 36 36 27.9248 36 18C36 8.0752 27.9252 0 18 0C8.0748 0 0 8.0752 0 18C0 27.9248 8.0752 36 18 36ZM22.622 34.0716C24.3896 32.508 25.8652 30.0776 26.8664 27.0996C28.418 27.3736 29.8956 27.7228 31.2896 28.1408C29.1372 30.9556 26.1116 33.0664 22.622 34.0716ZM27.2452 25.8725C28.9384 26.1773 30.5484 26.5701 32.0596 27.0433C33.636 24.6009 34.5936 21.7257 34.71 18.6365H28.2736C28.2216 21.2233 27.8588 23.6729 27.2452 25.8725ZM34.71 17.3633H28.274C28.222 14.7765 27.8592 12.3265 27.2452 10.1269C28.9388 9.82249 30.5488 9.42929 32.06 8.95569C33.636 11.3985 34.5936 14.2745 34.71 17.3633ZM26.8664 8.89915C28.418 8.62595 29.896 8.27675 31.2896 7.85875C29.1368 5.04355 26.1112 2.93315 22.6212 1.92755C24.3892 3.49115 25.8652 5.92155 26.8664 8.89915ZM18.6368 1.31964C21.5784 1.70324 24.134 4.71844 25.6244 9.10404C23.4024 9.43164 21.054 9.60804 18.6368 9.63524V1.31964ZM26.0032 10.3319C23.6616 10.6867 21.1864 10.8807 18.6368 10.9083V17.3631H27.0008C26.9496 14.8363 26.5948 12.4531 26.0032 10.3319ZM18.6368 18.6368H27.0008C26.9496 21.1628 26.5948 23.5464 26.0032 25.668C23.6616 25.312 21.1864 25.1196 18.6368 25.0908V18.6368ZM25.624 26.8956C23.4024 26.5676 21.054 26.3912 18.6368 26.3644V34.6796C21.5788 34.296 24.134 31.2816 25.624 26.8956ZM17.3632 34.6796C14.4216 34.296 11.866 31.2816 10.3756 26.8956C12.5976 26.5676 14.946 26.3912 17.3632 26.3644V34.6796ZM9.99672 25.668C12.3383 25.3124 14.8135 25.1196 17.3631 25.0908V18.6368H8.99872C9.05032 21.1628 9.40512 23.5464 9.99672 25.668ZM17.3631 17.3631H8.99872C9.05032 14.8363 9.40512 12.4531 9.99672 10.3319C12.3383 10.6867 14.8139 10.8807 17.3631 10.9083V17.3631ZM17.3632 9.63564V1.31964C14.4216 1.70324 11.8656 4.71844 10.3756 9.10444C12.5976 9.43204 14.946 9.60844 17.3632 9.63564ZM13.3788 1.92755C11.6108 3.49115 10.1352 5.92155 9.13402 8.89915C7.58202 8.62635 6.10442 8.27675 4.71002 7.85875C6.86322 5.04355 9.88882 2.93315 13.3788 1.92755ZM8.75521 10.1272C7.06161 9.82282 5.45161 9.42962 3.94041 8.95642C2.36361 11.3984 1.40601 14.2744 1.28961 17.3636H7.72681C7.77841 14.7768 8.14121 12.3268 8.75521 10.1272ZM1.28961 18.6368H7.72681C7.77841 21.2236 8.14121 23.6732 8.75521 25.8724C7.06161 26.1768 5.45121 26.5704 3.94001 27.0436C2.36361 24.6008 1.40601 21.7252 1.28961 18.6368ZM13.3784 34.0716C11.6104 32.508 10.1348 30.0772 9.13402 27.0996C7.58202 27.3736 6.10442 27.7228 4.71002 28.1408C6.86282 30.9556 9.88802 33.0664 13.3784 34.0716Z" fill="#097ABD"/>
</svg>
