<svg width="86" height="86" viewBox="0 0 86 86" fill="none" xmlns="http://www.w3.org/2000/svg">
<path d="M41.542 44.4694H47.3725V24.0625H41.542V44.4694Z" fill="#FFD0A1"/>
<path d="M53.2028 12.402V85.2835H67.779V21.1478V12.402V6.57157C67.779 4.96812 66.4672 3.65625 64.8637 3.65625H56.1179C54.5145 3.65625 53.2026 4.96812 53.2026 6.57157V12.402H53.2028Z" fill="#FFD0A1"/>
<path d="M85.2718 21.1442V82.3646C85.2718 83.9681 83.96 85.28 82.3565 85.28H67.7803V21.1442H85.2718ZM85.2718 15.3138V21.1442H67.7803V12.3984H82.3565C83.96 12.3984 85.2718 13.7103 85.2718 15.3138Z" fill="#80D6FA"/>
<path d="M21.1356 44.4634H29.8814V24.0566H21.1356V44.4634V44.4634ZM35.712 9.48032V85.277H15.3052V18.2261V9.48032H35.712ZM35.712 9.48032H15.3052V3.64969C15.3052 2.04624 16.617 0.734375 18.2205 0.734375H32.7967C34.4002 0.734375 35.712 2.04624 35.712 3.64969V6.56501V9.48032Z" fill="#80D6FA"/>
<path d="M15.3047 18.2225V85.2734H3.64359C2.04014 85.2734 0.728271 83.9615 0.728271 82.3581V12.3919C0.728271 10.7884 2.04014 9.47656 3.64359 9.47656H15.3047V18.2225Z" fill="#FF7474"/>
<path d="M21.135 44.4616H29.8808V24.0547H21.135V44.4616Z" fill="#AAB1BA"/>
<path d="M41.5424 44.4609H47.3728V24.054H41.5424V44.4609ZM53.2035 12.393V85.2745H35.7119V9.47781V6.5625H53.2035V12.393Z" fill="#F2EDDA"/>
<path d="M82.356 86.0002H3.64402C1.60345 86.0002 0 84.3967 0 82.356V12.3898C0 10.3492 1.60345 8.74577 3.64402 8.74577H9.47447C9.91176 8.74577 10.2033 9.03736 10.2033 9.47465C10.2033 9.91193 9.91176 10.2035 9.47447 10.2035H3.64402C2.47786 10.2035 1.45757 11.2238 1.45757 12.39V82.3562C1.45757 83.5223 2.47786 84.5426 3.64402 84.5426H14.5762V18.9493H6.55933C6.12204 18.9493 5.83046 18.6577 5.83046 18.2204C5.83046 17.7831 6.12204 17.4915 6.55933 17.4915H14.5762V3.64402C14.5762 1.60345 16.1797 0 18.2204 0H32.7967C34.8374 0 36.4407 1.60345 36.4407 3.64402V5.83046H47.3729C47.8102 5.83046 48.1018 6.12204 48.1018 6.55933C48.1018 6.99662 47.8102 7.2882 47.3729 7.2882H36.4407V84.5426H52.4746V6.55933C52.4746 4.51859 54.0781 2.91532 56.1187 2.91532H64.8644C66.9052 2.91532 68.5085 4.51876 68.5085 6.55933V20.4069H77.9831C78.4204 20.4069 78.712 20.6984 78.712 21.1357C78.712 21.573 78.4204 21.8646 77.9831 21.8646H68.5085V84.5426H82.356C83.5221 84.5426 84.5424 83.5223 84.5424 82.3562V15.3051C84.5424 14.1389 83.5221 13.1187 82.356 13.1187H73.6102C73.1729 13.1187 72.8813 12.8271 72.8813 12.3898C72.8813 11.9525 73.1729 11.6609 73.6102 11.6609H82.356C84.3967 11.6609 86 13.2644 86 15.3049V82.3558C86.0002 84.3967 84.3967 86.0002 82.356 86.0002ZM53.9322 84.5424H67.0509V6.55933C67.0509 5.24747 66.1763 4.37289 64.8644 4.37289H56.1187C54.9525 4.37289 53.9322 5.39317 53.9322 6.55933V11.6611H61.9491C62.3864 11.6611 62.678 11.9527 62.678 12.39C62.678 12.8272 62.3864 13.1188 61.9491 13.1188H53.9322V84.5424ZM16.034 84.5424H34.9831V3.64402C34.9831 2.33215 34.1085 1.45757 32.7967 1.45757H18.2204C17.0543 1.45757 16.034 2.47786 16.034 3.64402V8.74577H29.8815C30.3188 8.74577 30.6104 9.03736 30.6104 9.47465C30.6104 9.91193 30.3188 10.2035 29.8815 10.2035H16.034V84.5424ZM79.4408 77.2544H73.6104C73.1731 77.2544 72.8815 76.9628 72.8815 76.5255C72.8815 76.0882 73.1731 75.7967 73.6104 75.7967H79.4408C79.8781 75.7967 80.1697 76.0882 80.1697 76.5255C80.1695 76.9628 79.8781 77.2544 79.4408 77.2544ZM61.9493 77.2544H59.034C58.5967 77.2544 58.3051 76.9628 58.3051 76.5255C58.3051 76.0882 58.5967 75.7967 59.034 75.7967H61.9493C62.3866 75.7967 62.6782 76.0882 62.6782 76.5255C62.678 76.9628 62.3866 77.2544 61.9493 77.2544ZM47.3729 77.2544H41.5424C41.1051 77.2544 40.8136 76.9628 40.8136 76.5255C40.8136 76.0882 41.1051 75.7967 41.5424 75.7967H47.3729C47.8102 75.7967 48.1018 76.0882 48.1018 76.5255C48.1018 76.9628 47.8102 77.2544 47.3729 77.2544ZM29.8813 77.2544H21.1356C20.6983 77.2544 20.4067 76.9628 20.4067 76.5255C20.4067 76.0882 20.6983 75.7967 21.1356 75.7967H29.8813C30.3186 75.7967 30.6102 76.0882 30.6102 76.5255C30.6102 76.9628 30.3186 77.2544 29.8813 77.2544ZM9.47465 77.2544H6.55933C6.12204 77.2544 5.83046 76.9628 5.83046 76.5255C5.83046 76.0882 6.12204 75.7967 6.55933 75.7967H9.47465C9.91193 75.7967 10.2035 76.0882 10.2035 76.5255C10.2033 76.9628 9.91193 77.2544 9.47465 77.2544ZM79.4408 71.4238H73.6104C73.1731 71.4238 72.8815 71.1322 72.8815 70.6949C72.8815 70.2576 73.1731 69.966 73.6104 69.966H79.4408C79.8781 69.966 80.1697 70.2576 80.1697 70.6949C80.1695 71.1324 79.8781 71.4238 79.4408 71.4238ZM61.9493 71.4238H59.034C58.5967 71.4238 58.3051 71.1322 58.3051 70.6949C58.3051 70.2576 58.5967 69.966 59.034 69.966H61.9493C62.3866 69.966 62.6782 70.2576 62.6782 70.6949C62.678 71.1324 62.3866 71.4238 61.9493 71.4238ZM47.3729 71.4238H41.5424C41.1051 71.4238 40.8136 71.1322 40.8136 70.6949C40.8136 70.2576 41.1051 69.966 41.5424 69.966H47.3729C47.8102 69.966 48.1018 70.2576 48.1018 70.6949C48.1018 71.1324 47.8102 71.4238 47.3729 71.4238ZM29.8813 71.4238H21.1356C20.6983 71.4238 20.4067 71.1322 20.4067 70.6949C20.4067 70.2576 20.6983 69.966 21.1356 69.966H29.8813C30.3186 69.966 30.6102 70.2576 30.6102 70.6949C30.6102 71.1324 30.3186 71.4238 29.8813 71.4238ZM9.47465 71.4238H6.55933C6.12204 71.4238 5.83046 71.1322 5.83046 70.6949C5.83046 70.2576 6.12204 69.966 6.55933 69.966H9.47465C9.91193 69.966 10.2035 70.2576 10.2035 70.6949C10.2033 71.1324 9.91193 71.4238 9.47465 71.4238ZM79.4408 51.0171C79.0035 51.0171 78.712 50.7255 78.712 50.2882V35.712C78.712 35.2747 79.0035 34.9831 79.4408 34.9831C79.8781 34.9831 80.1697 35.2747 80.1697 35.712V50.2882C80.1695 50.7255 79.8781 51.0171 79.4408 51.0171ZM73.6102 51.0171C73.1729 51.0171 72.8813 50.7255 72.8813 50.2882V35.712C72.8813 35.2747 73.1729 34.9831 73.6102 34.9831C74.0475 34.9831 74.3391 35.2747 74.3391 35.712V50.2882C74.3391 50.7255 74.0475 51.0171 73.6102 51.0171ZM47.3729 45.1864H41.5424C41.1051 45.1864 40.8136 44.8949 40.8136 44.4576V24.0509C40.8136 23.6136 41.1051 23.322 41.5424 23.322H47.3729C47.8102 23.322 48.1018 23.6136 48.1018 24.0509V44.4577C48.1018 44.895 47.8102 45.1864 47.3729 45.1864ZM42.2713 43.7289H46.6442V24.7798H42.2713V43.7289ZM29.8813 45.1864H21.1356C20.6983 45.1864 20.4067 44.8949 20.4067 44.4576V24.0509C20.4067 23.6136 20.6983 23.322 21.1356 23.322H29.8813C30.3186 23.322 30.6102 23.6136 30.6102 24.0509V44.4577C30.6102 44.895 30.3186 45.1864 29.8813 45.1864ZM21.8644 43.7289H29.1526V24.7798H21.8644V43.7289ZM9.47465 42.2713H6.55933C6.12204 42.2713 5.83046 41.9797 5.83046 41.5424C5.83046 41.1051 6.12204 40.8136 6.55933 40.8136H9.47465C9.91193 40.8136 10.2035 41.1051 10.2035 41.5424C10.2035 41.9797 9.91193 42.2713 9.47465 42.2713ZM61.9493 36.4407H59.034C58.5967 36.4407 58.3051 36.1491 58.3051 35.7118C58.3051 35.2745 58.5967 34.9829 59.034 34.9829H61.9493C62.3866 34.9829 62.6782 35.2745 62.6782 35.7118C62.678 36.1493 62.3866 36.4407 61.9493 36.4407ZM9.47465 36.4407H6.55933C6.12204 36.4407 5.83046 36.1491 5.83046 35.7118C5.83046 35.2745 6.12204 34.9829 6.55933 34.9829H9.47465C9.91193 34.9829 10.2035 35.2745 10.2035 35.7118C10.2033 36.1493 9.91193 36.4407 9.47465 36.4407ZM61.9493 30.6102H59.034C58.5967 30.6102 58.3051 30.3186 58.3051 29.8813C58.3051 29.4441 58.5967 29.1525 59.034 29.1525H61.9493C62.3866 29.1525 62.6782 29.4441 62.6782 29.8813C62.678 30.3186 62.3866 30.6102 61.9493 30.6102ZM61.9493 24.7798H59.034C58.5967 24.7798 58.3051 24.4882 58.3051 24.0509C58.3051 23.6136 58.5967 23.322 59.034 23.322H61.9493C62.3866 23.322 62.6782 23.6136 62.6782 24.0509C62.678 24.4882 62.3866 24.7798 61.9493 24.7798Z" fill="#51565F"/>
</svg>
