<svg width="82" height="68" viewBox="0 0 82 68" fill="none" xmlns="http://www.w3.org/2000/svg">
<g clip-path="url(#clip0_5636_80)">
<path d="M68.7741 66.3448H12.5138C7.084 66.3448 2.70093 61.9617 2.70093 56.5319V22.7757C2.70093 17.346 7.084 12.9629 12.5138 12.9629H68.7741C74.2038 12.9629 78.5869 17.346 78.5869 22.7757V56.5973C78.5869 61.9617 74.2038 66.3448 68.7741 66.3448Z" fill="#AAB1BA"/>
<path d="M68.7737 67.0008H12.5134C6.75655 67.0008 2.04639 62.2906 2.04639 56.5338V22.7776C2.04639 17.0207 6.75655 12.3105 12.5134 12.3105H68.7737C74.5306 12.3105 79.2407 17.0207 79.2407 22.7776V56.5992C79.2407 62.2906 74.5306 67.0008 68.7737 67.0008ZM12.5134 13.6189C7.47616 13.6189 3.35477 17.7403 3.35477 22.7776V56.5992C3.35477 61.6364 7.47616 65.7578 12.5134 65.7578H68.7737C73.811 65.7578 77.9324 61.6364 77.9324 56.5992V22.7776C77.9324 17.7403 73.811 13.6189 68.7737 13.6189H12.5134Z" fill="#51565F" stroke="#51565F" stroke-width="0.389323"/>
<path d="M40.6438 52.2811C38.812 52.2811 37.3728 50.8419 37.3728 49.0101V45.2812H43.9147V49.0101C43.9147 50.7764 42.4755 52.2811 40.6438 52.2811Z" fill="#F2EDDA"/>
<path d="M40.6441 52.9341C38.4853 52.9341 36.719 51.1678 36.719 49.009V44.953C36.719 44.5605 36.9807 44.2988 37.3732 44.2988H43.9151C44.3076 44.2988 44.5693 44.5605 44.5693 44.953V49.009C44.5693 51.1678 42.803 52.9341 40.6441 52.9341ZM38.0274 45.5418V48.9436C38.0274 50.3828 39.2049 51.5603 40.6441 51.5603C42.0833 51.5603 43.2609 50.3828 43.2609 48.9436V45.5418H38.0274Z" fill="#51565F" stroke="#51565F" stroke-width="0.389323"/>
<path d="M19.2515 10.1514H11.205C6.10232 10.1514 1.91551 14.2727 1.85009 19.4408L1.65383 35.4031C1.58841 40.6366 5.77523 44.8888 11.0087 44.8888H70.7362C75.9698 44.8888 80.1566 40.6366 80.0912 35.4031L79.8949 19.3754C79.8295 14.2728 75.6427 10.0859 70.54 10.0859H62.0355H19.2515" fill="#80D6FA"/>
<path d="M70.8018 45.5429H11.0089C8.32668 45.5429 5.77534 44.4962 3.87819 42.5336C1.98104 40.6365 0.999756 38.0852 0.999756 35.403L1.19601 19.3753C1.26143 13.8801 5.77534 9.49707 11.2051 9.49707H70.6055C76.1007 9.49707 80.5492 13.9456 80.6146 19.3753L80.8109 35.403C80.8109 38.0852 79.8296 40.6365 77.9324 42.5991C76.0353 44.4962 73.4839 45.5429 70.8018 45.5429ZM11.2051 10.8054C6.42953 10.8054 2.56981 14.6652 2.50439 19.4408L2.30813 35.403C2.30813 37.7581 3.15858 39.9823 4.79405 41.6178C6.42953 43.3187 8.65377 44.2345 11.0089 44.2345H70.7364C73.0914 44.2345 75.3157 43.3187 76.9512 41.6178C78.5866 39.9169 79.5025 37.7581 79.4371 35.403L79.2408 19.3753C79.1754 14.5997 75.2503 10.74 70.5401 10.74H11.2051V10.8054Z" fill="#51565F" stroke="#51565F" stroke-width="0.389323"/>
<path d="M40.7093 33.9639C40.6439 33.9639 40.6439 33.9639 40.5784 33.9639C37.5037 33.9639 35.0178 36.5152 35.0178 39.4591V45.2159H46.2699V39.4591C46.3353 36.5152 43.8494 33.9639 40.7093 33.9639Z" fill="#FF7474"/>
<path d="M46.2695 45.541H35.0175C34.8212 45.541 34.6904 45.4755 34.5595 45.3447C34.4287 45.2139 34.3633 45.083 34.3633 44.8868L34.4287 39.457C34.4287 36.0552 37.2417 33.3076 40.6435 33.3076H40.7743C44.1761 33.3076 46.9891 36.0552 46.9891 39.457L46.9237 44.8868C46.9237 45.2793 46.662 45.541 46.2695 45.541ZM35.6717 44.2326H45.6153V39.457C45.6153 36.7748 43.3911 34.616 40.7089 34.616H40.5781C37.8959 34.616 35.6717 36.7748 35.6717 39.457V44.2326Z" fill="#51565F" stroke="#51565F" stroke-width="0.389323"/>
<path d="M54.7089 9.83156C54.3164 9.83156 54.0547 9.56988 54.0547 9.17737C54.0547 7.01854 53.5314 5.44849 52.4847 4.40179C50.3912 2.30838 46.2044 2.30838 41.3634 2.30838H40.6438H39.9242C35.0832 2.30838 30.8964 2.30838 28.803 4.40179C27.7563 5.44849 27.2329 7.01854 27.2329 9.17737C27.2329 9.56988 26.9713 9.83156 26.5788 9.83156C26.1862 9.83156 25.9246 9.56988 25.9246 9.17737C25.9246 6.62603 26.5788 4.7943 27.8871 3.48592C30.373 1 34.7561 1 39.9242 1H40.6438H41.3634C46.4661 1 50.9146 1 53.4005 3.48592C54.7089 4.7943 55.3631 6.62603 55.3631 9.17737C55.3631 9.50446 55.036 9.83156 54.7089 9.83156Z" fill="#51565F" stroke="#51565F" stroke-width="0.389323"/>
</g>
<defs>
<clipPath id="clip0_5636_80">
<rect width="82" height="68" fill="white"/>
</clipPath>
</defs>
</svg>
