<svg width="12" height="12" viewBox="0 0 12 12" fill="none" xmlns="http://www.w3.org/2000/svg">
<path d="M6.7132 5.99998L11.8525 0.860716C12.0489 0.663637 12.0492 0.344572 11.8525 0.147809C11.6548 -0.0492698 11.336 -0.0492698 11.1389 0.147809L5.99998 5.28676L0.860716 0.147809C0.664587 -0.0492698 0.344572 -0.0492698 0.147809 0.147809C-0.0492698 0.344572 -0.0492698 0.663637 0.147809 0.860716L5.28676 5.99998L0.148126 11.1386C-0.0489529 11.3357 -0.0489529 11.6548 0.148126 11.8522C0.246666 11.9504 0.375623 12.0001 0.504579 11.9998C0.633853 12.0001 0.76281 11.9504 0.861033 11.8522L5.99998 6.7132L11.1389 11.8522C11.2375 11.9504 11.3667 12.0001 11.4957 12.0001C11.6243 12.0001 11.7536 11.9504 11.8525 11.8522C12.0492 11.6548 12.0492 11.3357 11.8522 11.1386L6.7132 5.99998Z" fill="#424242"/>
</svg>
