<svg width="187" height="151" viewBox="0 0 187 151" fill="none" xmlns="http://www.w3.org/2000/svg">
<path d="M172.774 148.934H14.5576C7.58552 148.934 1.93323 143.282 1.93323 136.31V14.6664C1.93323 7.69429 7.58552 2.04199 14.5576 2.04199H172.774C179.746 2.04199 185.398 7.69429 185.398 14.6664V136.31C185.398 143.282 179.746 148.934 172.774 148.934Z" fill="#F2EDDA"/>
<path d="M1.93323 29.7292V14.6703C1.93323 7.69819 7.58552 2.0459 14.5576 2.0459H172.774C179.746 2.0459 185.398 7.69819 185.398 14.6703V29.7292H1.93323Z" fill="#80D6FA"/>
<path d="M124.673 22.0025C127.601 22.0025 129.975 19.6289 129.975 16.7009C129.975 13.773 127.601 11.3994 124.673 11.3994C121.746 11.3994 119.372 13.773 119.372 16.7009C119.372 19.6289 121.746 22.0025 124.673 22.0025Z" fill="#F2EDDA"/>
<path d="M146.197 22.0008C149.126 22.0008 151.5 19.6265 151.5 16.6977C151.5 13.7688 149.126 11.3945 146.197 11.3945C143.268 11.3945 140.894 13.7688 140.894 16.6977C140.894 19.6265 143.268 22.0008 146.197 22.0008Z" fill="#FF7474"/>
<path d="M173.022 16.7009C173.022 19.6304 170.65 22.0025 167.719 22.0025C164.791 22.0025 162.417 19.6288 162.417 16.7009C162.417 13.7715 164.791 11.3994 167.719 11.3994C170.648 11.3994 173.022 13.7731 173.022 16.7009Z" fill="#50DD8E"/>
<path d="M172.776 0.444336H14.5579C6.71455 0.444336 0.333496 6.82539 0.333496 14.6688V29.7293V136.312C0.333496 144.156 6.71455 150.537 14.5579 150.537H172.776C180.617 150.537 187 144.156 187 136.312V29.7293V14.6688C186.999 6.82539 180.617 0.444336 172.776 0.444336ZM172.776 147.333H14.5579C8.48119 147.333 3.53684 142.389 3.53684 136.312V31.3309H26.8764C27.7605 31.3309 28.478 30.6134 28.478 29.7293C28.478 28.8451 27.7605 28.1276 26.8764 28.1276H3.53523V14.6688C3.53523 8.59203 8.47959 3.64768 14.5563 3.64768H172.774C178.851 3.64768 183.795 8.59203 183.795 14.6688V28.1276H53.0429C52.1587 28.1276 51.4412 28.8451 51.4412 29.7293C51.4412 30.6134 52.1587 31.3309 53.0429 31.3309H183.797V136.312C183.795 142.391 178.851 147.333 172.776 147.333Z" fill="#51565F"/>
<rect x="19.8889" y="46.6664" width="147.556" height="85.3333" rx="11.5556" fill="white" stroke="#51565F" stroke-width="3.55556"/>
<path d="M35.8888 62.667H84.7777" stroke="#51565F" stroke-width="4.44444" stroke-linecap="round"/>
<path d="M102.555 62.667H151.444" stroke="#51565F" stroke-width="4.44444" stroke-linecap="round"/>
<path d="M35.8888 75.999H84.7777" stroke="#51565F" stroke-width="4.44444" stroke-linecap="round"/>
<path d="M102.555 75.999H151.444" stroke="#51565F" stroke-width="4.44444" stroke-linecap="round"/>
<path d="M35.8888 89.333H84.7777" stroke="#51565F" stroke-width="4.44444" stroke-linecap="round"/>
<path d="M102.555 89.333H151.444" stroke="#51565F" stroke-width="4.44444" stroke-linecap="round"/>
<path d="M35.8888 102.666H84.7777" stroke="#51565F" stroke-width="4.44444" stroke-linecap="round"/>
<path d="M35.8888 116H84.7777" stroke="#51565F" stroke-width="4.44444" stroke-linecap="round"/>
</svg>
