<svg width="18" height="32" viewBox="0 0 18 32" fill="none" xmlns="http://www.w3.org/2000/svg">
<path fill-rule="evenodd" clip-rule="evenodd" d="M10.0385 29.7695H13.4964C14.0719 29.7695 14.5385 30.2304 14.5385 30.8079C14.5385 31.3814 14.0766 31.8464 13.4964 31.8464H4.50363C3.9281 31.8464 3.46154 31.3854 3.46154 30.8079C3.46154 30.2344 3.9234 29.7695 4.50363 29.7695H7.96154V25.5563C3.48012 25.0415 0 21.235 0 16.6156V12.1156C0 11.5421 0.464935 11.0771 1.03846 11.0771C1.61199 11.0771 2.07692 11.5421 2.07692 12.1156V16.6156C2.07692 20.4391 5.17649 23.5387 9 23.5387C12.8235 23.5387 15.9231 20.4391 15.9231 16.6156V12.1156C15.9231 11.5421 16.388 11.0771 16.9615 11.0771C17.5351 11.0771 18 11.5421 18 12.1156V16.6156C18 21.235 14.5199 25.0415 10.0385 25.5563V29.7695Z" fill="white"/>
<path fill-rule="evenodd" clip-rule="evenodd" d="M9.0009 0C11.8685 0 14.1932 2.32468 14.1932 5.19231V16.2692C14.1932 19.1369 11.8685 21.4615 9.0009 21.4615C6.13327 21.4615 3.80859 19.1369 3.80859 16.2692V5.19231C3.80859 2.32468 6.13327 0 9.0009 0Z" fill="white"/>
</svg>
