<svg width="24" height="23" viewBox="0 0 24 23" fill="none" xmlns="http://www.w3.org/2000/svg">
<path d="M5.77458 10.3917H6.64898C7.11778 10.3917 7.49805 10.0115 7.49805 9.54266V8.66826C7.49805 8.19946 7.11778 7.81946 6.64898 7.81946H5.77458C5.30578 7.81946 4.92578 8.19946 4.92578 8.66826V9.54266C4.92605 10.0115 5.30578 10.3917 5.77458 10.3917Z" fill="white"/>
<path d="M11.5636 10.3917H12.4386C12.9074 10.3917 13.2874 10.0115 13.2874 9.54266V8.66826C13.2874 8.19946 12.9074 7.81946 12.4386 7.81946H11.5636C11.0948 7.81946 10.7148 8.19946 10.7148 8.66826V9.54266C10.7151 10.0115 11.0951 10.3917 11.5636 10.3917Z" fill="white"/>
<path d="M17.3491 10.3917H18.2235C18.6923 10.3917 19.0723 10.0115 19.0723 9.54266V8.66826C19.0723 8.19946 18.6923 7.81946 18.2235 7.81946H17.3491C16.8803 7.81946 16.5 8.19946 16.5 8.66826V9.54266C16.5003 10.0115 16.8805 10.3917 17.3491 10.3917Z" fill="white"/>
<path d="M5.77458 14.7651H6.64898C7.11778 14.7651 7.49805 14.3848 7.49805 13.916V13.0413C7.49805 12.5725 7.11778 12.1925 6.64898 12.1925H5.77458C5.30578 12.1925 4.92578 12.5725 4.92578 13.0413V13.916C4.92605 14.3848 5.30578 14.7651 5.77458 14.7651Z" fill="white"/>
<path d="M11.5636 14.7651H12.4386C12.9074 14.7651 13.2874 14.3848 13.2874 13.916V13.0413C13.2874 12.5725 12.9074 12.1925 12.4386 12.1925H11.5636C11.0948 12.1925 10.7148 12.5725 10.7148 13.0413V13.916C10.7151 14.3848 11.0951 14.7651 11.5636 14.7651Z" fill="white"/>
<path d="M17.3491 14.7651H18.2235C18.6923 14.7651 19.0723 14.3848 19.0723 13.916V13.0413C19.0723 12.5725 18.6923 12.1925 18.2235 12.1925H17.3491C16.8803 12.1925 16.5 12.5725 16.5 13.0413V13.916C16.5003 14.3848 16.8805 14.7651 17.3491 14.7651Z" fill="white"/>
<path d="M5.77458 19.1379H6.64898C7.11778 19.1379 7.49805 18.7576 7.49805 18.2888V17.4139C7.49805 16.9451 7.11778 16.5653 6.64898 16.5653H5.77458C5.30578 16.5653 4.92578 16.9451 4.92578 17.4139V18.2888C4.92605 18.7576 5.30578 19.1379 5.77458 19.1379Z" fill="white"/>
<path d="M11.5636 19.1379H12.4386C12.9074 19.1379 13.2874 18.7576 13.2874 18.2888V17.4139C13.2874 16.9451 12.9074 16.5653 12.4386 16.5653H11.5636C11.0948 16.5653 10.7148 16.9451 10.7148 17.4139V18.2888C10.7151 18.7576 11.0951 19.1379 11.5636 19.1379Z" fill="white"/>
<path fill-rule="evenodd" clip-rule="evenodd" d="M21.0032 0H2.9968C1.34453 0 0 1.34427 0 2.9968V19.4592C0 21.1117 1.34453 22.456 2.9968 22.456H21.0029C22.6555 22.456 24 21.1117 24 19.4592V2.9968C24 1.34427 22.6555 0 21.0032 0ZM23.1498 19.4592C23.1498 20.6435 22.1866 21.6072 21.0018 21.6072H2.99566C1.81139 21.6072 0.847656 20.6438 0.847656 19.4592V5.34988H23.1498V19.4592ZM0.847656 4.5011H23.1495H23.1498V2.99656C23.1498 1.81176 22.1863 0.848297 21.0018 0.848297H2.99566C1.81112 0.848297 0.847656 1.81203 0.847656 2.99656V4.5011Z" fill="white"/>
</svg>
