<svg width="16" height="14" viewBox="0 0 16 14" fill="none" xmlns="http://www.w3.org/2000/svg">
<path d="M7.5226 13.6425C7.40583 13.5701 6.41298 12.9545 5.83556 12.5482C1.38172 9.41768 -0.717695 5.7793 0.219518 2.81632C0.752301 1.13176 2.23549 0 3.91004 0C4.97433 0 6.04841 0.411454 6.85642 1.12921C7.47541 1.67923 7.89197 2.55429 8.00032 2.79716C8.11931 2.53003 8.53289 1.67178 9.14379 1.12921C9.95159 0.411667 11.0252 0 12.0897 0C13.7645 0 15.2477 1.13176 15.7805 2.81653C16.7177 5.77951 14.6183 9.41768 10.1644 12.5482C9.58733 12.9541 8.59554 13.569 8.47729 13.6423C8.47233 13.6454 8.46891 13.6475 8.46712 13.6487C8.33812 13.7289 8.1721 13.773 8.00011 13.773C7.82854 13.773 7.6623 13.7289 7.53246 13.6487C7.5307 13.6476 7.52739 13.6455 7.5226 13.6425ZM3.91003 0.677083C2.53199 0.677083 1.30848 1.61877 0.865315 3.02022C0.0219727 5.68712 2.0256 9.04175 6.2255 11.9937C6.77471 12.3799 7.75022 12.9859 7.87548 13.0637C7.88358 13.0688 7.88812 13.0716 7.88877 13.072C7.90282 13.0805 7.94219 13.0954 8.00031 13.0954C8.05842 13.0954 8.09737 13.0809 8.1112 13.072C8.11163 13.0717 8.11367 13.0705 8.11724 13.0683C8.20489 13.0139 9.21325 12.3886 9.7749 11.9937C13.9748 9.04154 15.9784 5.68733 15.1349 3.02043C14.6917 1.61877 13.468 0.677083 12.0899 0.677083C11.1891 0.677083 10.2794 1.02638 9.59397 1.63537C9.01372 2.15031 8.61815 3.07267 8.59872 3.11797C8.59833 3.11888 8.59809 3.11944 8.59801 3.11963C8.43241 3.58642 8.15207 3.65879 8.00009 3.65879C7.84811 3.65879 7.56778 3.58664 7.39558 3.10324C7.39557 3.10324 7.39534 3.10271 7.3949 3.10167C7.37637 3.05883 6.9819 2.14641 6.40664 1.63537C5.72081 1.02638 4.81063 0.677083 3.91003 0.677083Z" fill="#1D1D1D"/>
</svg>
