<svg width="221" height="146" viewBox="0 0 221 146" fill="none" xmlns="http://www.w3.org/2000/svg">
<path d="M6.73828 137.236C5.66016 137.236 4.68359 136.971 3.80859 136.439C2.94141 135.908 2.26562 135.17 1.78125 134.224C1.29688 133.271 1.05469 132.205 1.05469 131.025V130.521C1.05469 129.303 1.28906 128.205 1.75781 127.228C2.23438 126.252 2.89453 125.486 3.73828 124.932C4.58203 124.369 5.49609 124.088 6.48047 124.088C8.01953 124.088 9.23828 124.615 10.1367 125.67C11.043 126.717 11.4961 128.15 11.4961 129.971V130.756H2.44922V131.025C2.44922 132.463 2.85938 133.662 3.67969 134.623C4.50781 135.576 5.54688 136.053 6.79688 136.053C7.54688 136.053 8.20703 135.916 8.77734 135.642C9.35547 135.369 9.87891 134.932 10.3477 134.33L11.2266 134.998C10.1953 136.49 8.69922 137.236 6.73828 137.236ZM6.48047 125.283C5.42578 125.283 4.53516 125.67 3.80859 126.443C3.08984 127.217 2.65234 128.256 2.49609 129.56H10.1016V129.408C10.0625 128.189 9.71484 127.197 9.05859 126.432C8.40234 125.666 7.54297 125.283 6.48047 125.283ZM16.4878 135.783H24.9136V137.002H15.0347V119.939H16.4878V135.783ZM32.753 137.236C31.6748 137.236 30.6983 136.971 29.8233 136.439C28.9561 135.908 28.2803 135.17 27.7959 134.224C27.3116 133.271 27.0694 132.205 27.0694 131.025V130.521C27.0694 129.303 27.3037 128.205 27.7725 127.228C28.2491 126.252 28.9092 125.486 29.753 124.932C30.5967 124.369 31.5108 124.088 32.4952 124.088C34.0342 124.088 35.253 124.615 36.1514 125.67C37.0577 126.717 37.5108 128.15 37.5108 129.971V130.756H28.4639V131.025C28.4639 132.463 28.8741 133.662 29.6944 134.623C30.5225 135.576 31.5616 136.053 32.8116 136.053C33.5616 136.053 34.2217 135.916 34.792 135.642C35.3702 135.369 35.8936 134.932 36.3623 134.33L37.2412 134.998C36.21 136.49 34.7139 137.236 32.753 137.236ZM32.4952 125.283C31.4405 125.283 30.5498 125.67 29.8233 126.443C29.1045 127.217 28.667 128.256 28.5108 129.56H36.1162V129.408C36.0772 128.189 35.7295 127.197 35.0733 126.432C34.417 125.666 33.5577 125.283 32.4952 125.283ZM48.7252 137.002C48.5845 136.603 48.4947 136.014 48.4556 135.232C47.9634 135.873 47.3345 136.369 46.5689 136.721C45.8111 137.064 45.0064 137.236 44.1548 137.236C42.9361 137.236 41.9478 136.896 41.19 136.217C40.44 135.537 40.065 134.678 40.065 133.639C40.065 132.404 40.5767 131.428 41.6002 130.709C42.6314 129.99 44.065 129.631 45.9009 129.631H48.4439V128.189C48.4439 127.283 48.1627 126.572 47.6002 126.057C47.0455 125.533 46.233 125.271 45.1627 125.271C44.1861 125.271 43.3775 125.521 42.7369 126.021C42.0962 126.521 41.7759 127.123 41.7759 127.826L40.3697 127.814C40.3697 126.807 40.8384 125.935 41.7759 125.201C42.7134 124.459 43.8658 124.088 45.233 124.088C46.647 124.088 47.7603 124.443 48.5728 125.154C49.3931 125.857 49.815 126.842 49.8384 128.107V134.107C49.8384 135.334 49.9673 136.252 50.2252 136.861V137.002H48.7252ZM44.3189 135.994C45.2564 135.994 46.0923 135.767 46.8267 135.314C47.5689 134.861 48.108 134.256 48.4439 133.498V130.709H45.9361C44.5377 130.724 43.4439 130.982 42.6548 131.482C41.8658 131.974 41.4712 132.654 41.4712 133.521C41.4712 134.232 41.733 134.822 42.2564 135.291C42.7877 135.76 43.4752 135.994 44.3189 135.994ZM59.9278 125.517C59.6309 125.463 59.3145 125.435 58.9786 125.435C58.1036 125.435 57.3614 125.682 56.752 126.174C56.1505 126.658 55.7208 127.365 55.463 128.295V137.002H54.0684V124.322H55.4395L55.463 126.338C56.2052 124.838 57.3966 124.088 59.0372 124.088C59.4278 124.088 59.7364 124.139 59.963 124.24L59.9278 125.517ZM63.9703 124.322L64.0172 126.49C64.4938 125.709 65.0875 125.115 65.7984 124.709C66.5094 124.295 67.2945 124.088 68.1539 124.088C69.5133 124.088 70.525 124.471 71.1891 125.236C71.8531 126.002 72.1891 127.15 72.1969 128.682V137.002H70.8023V128.67C70.7945 127.537 70.5523 126.693 70.0758 126.139C69.607 125.584 68.8531 125.307 67.8141 125.307C66.9469 125.307 66.1773 125.58 65.5055 126.127C64.8414 126.666 64.3492 127.396 64.0289 128.318V137.002H62.6344V124.322H63.9703ZM77.88 137.002H76.4737V124.322H77.88V137.002ZM76.2277 120.654C76.2277 120.389 76.3136 120.166 76.4855 119.986C76.6573 119.799 76.8917 119.705 77.1886 119.705C77.4855 119.705 77.7198 119.799 77.8917 119.986C78.0714 120.166 78.1612 120.389 78.1612 120.654C78.1612 120.92 78.0714 121.142 77.8917 121.322C77.7198 121.502 77.4855 121.592 77.1886 121.592C76.8917 121.592 76.6573 121.502 76.4855 121.322C76.3136 121.142 76.2277 120.92 76.2277 120.654ZM83.5163 124.322L83.5631 126.49C84.0397 125.709 84.6334 125.115 85.3444 124.709C86.0553 124.295 86.8405 124.088 87.6998 124.088C89.0592 124.088 90.0709 124.471 90.735 125.236C91.3991 126.002 91.735 127.15 91.7428 128.682V137.002H90.3483V128.67C90.3405 127.537 90.0983 126.693 89.6217 126.139C89.153 125.584 88.3991 125.307 87.36 125.307C86.4928 125.307 85.7233 125.58 85.0514 126.127C84.3873 126.666 83.8952 127.396 83.5748 128.318V137.002H82.1803V124.322H83.5163ZM95.2931 130.545C95.2931 128.56 95.7306 126.99 96.6056 125.834C97.4884 124.67 98.6837 124.088 100.192 124.088C101.918 124.088 103.231 124.775 104.129 126.15L104.199 124.322H105.512V136.744C105.512 138.377 105.055 139.67 104.141 140.623C103.227 141.576 101.988 142.053 100.426 142.053C99.5431 142.053 98.6994 141.853 97.8947 141.455C97.0978 141.064 96.4689 140.541 96.008 139.885L96.7931 139.041C97.7853 140.26 98.965 140.869 100.332 140.869C101.504 140.869 102.418 140.521 103.074 139.826C103.731 139.139 104.07 138.182 104.094 136.955V135.361C103.195 136.611 101.887 137.236 100.168 137.236C98.6994 137.236 97.5197 136.65 96.6291 135.478C95.7384 134.307 95.2931 132.724 95.2931 130.732V130.545ZM96.7111 130.791C96.7111 132.408 97.0353 133.685 97.6837 134.623C98.3322 135.553 99.2462 136.017 100.426 136.017C102.152 136.017 103.375 135.244 104.094 133.697V127.803C103.766 126.99 103.293 126.373 102.676 125.951C102.059 125.521 101.317 125.307 100.449 125.307C99.2697 125.307 98.3517 125.771 97.6955 126.701C97.0392 127.623 96.7111 128.986 96.7111 130.791ZM125.948 132.807C125.948 131.861 125.616 131.115 124.952 130.568C124.288 130.014 123.073 129.49 121.308 128.998C119.542 128.498 118.253 127.955 117.441 127.369C116.284 126.541 115.706 125.455 115.706 124.111C115.706 122.807 116.241 121.748 117.312 120.935C118.39 120.115 119.765 119.705 121.437 119.705C122.57 119.705 123.581 119.924 124.472 120.361C125.37 120.799 126.066 121.408 126.558 122.189C127.05 122.971 127.296 123.842 127.296 124.803H125.843C125.843 123.639 125.445 122.705 124.648 122.002C123.851 121.291 122.78 120.935 121.437 120.935C120.132 120.935 119.093 121.228 118.32 121.814C117.546 122.392 117.159 123.15 117.159 124.088C117.159 124.955 117.507 125.662 118.202 126.209C118.898 126.756 120.011 127.24 121.542 127.662C123.073 128.076 124.234 128.51 125.023 128.963C125.812 129.408 126.405 129.943 126.804 130.568C127.202 131.193 127.402 131.932 127.402 132.783C127.402 134.127 126.863 135.205 125.784 136.017C124.714 136.83 123.3 137.236 121.542 137.236C120.339 137.236 119.234 137.021 118.226 136.592C117.226 136.162 116.464 135.56 115.941 134.787C115.425 134.014 115.167 133.127 115.167 132.127H116.609C116.609 133.33 117.058 134.279 117.956 134.974C118.855 135.67 120.05 136.017 121.542 136.017C122.87 136.017 123.937 135.724 124.741 135.139C125.546 134.553 125.948 133.775 125.948 132.807ZM135.581 137.236C134.503 137.236 133.526 136.971 132.651 136.439C131.784 135.908 131.108 135.17 130.624 134.224C130.139 133.271 129.897 132.205 129.897 131.025V130.521C129.897 129.303 130.132 128.205 130.6 127.228C131.077 126.252 131.737 125.486 132.581 124.932C133.425 124.369 134.339 124.088 135.323 124.088C136.862 124.088 138.081 124.615 138.979 125.67C139.885 126.717 140.339 128.15 140.339 129.971V130.756H131.292V131.025C131.292 132.463 131.702 133.662 132.522 134.623C133.35 135.576 134.389 136.053 135.639 136.053C136.389 136.053 137.05 135.916 137.62 135.642C138.198 135.369 138.721 134.932 139.19 134.33L140.069 134.998C139.038 136.49 137.542 137.236 135.581 137.236ZM135.323 125.283C134.268 125.283 133.378 125.67 132.651 126.443C131.932 127.217 131.495 128.256 131.339 129.56H138.944V129.408C138.905 128.189 138.557 127.197 137.901 126.432C137.245 125.666 136.385 125.283 135.323 125.283ZM149.408 125.517C149.112 125.463 148.795 125.435 148.459 125.435C147.584 125.435 146.842 125.682 146.233 126.174C145.631 126.658 145.201 127.365 144.944 128.295V137.002H143.549V124.322H144.92L144.944 126.338C145.686 124.838 146.877 124.088 148.518 124.088C148.908 124.088 149.217 124.139 149.444 124.24L149.408 125.517ZM156.275 135.068L160.131 124.322H161.572L156.838 137.002H155.701L150.943 124.322H152.385L156.275 135.068ZM169.107 137.236C168.029 137.236 167.052 136.971 166.177 136.439C165.31 135.908 164.634 135.17 164.15 134.224C163.665 133.271 163.423 132.205 163.423 131.025V130.521C163.423 129.303 163.658 128.205 164.126 127.228C164.603 126.252 165.263 125.486 166.107 124.932C166.95 124.369 167.865 124.088 168.849 124.088C170.388 124.088 171.607 124.615 172.505 125.67C173.411 126.717 173.865 128.15 173.865 129.971V130.756H164.818V131.025C164.818 132.463 165.228 133.662 166.048 134.623C166.876 135.576 167.915 136.053 169.165 136.053C169.915 136.053 170.575 135.916 171.146 135.642C171.724 135.369 172.247 134.932 172.716 134.33L173.595 134.998C172.564 136.49 171.068 137.236 169.107 137.236ZM168.849 125.283C167.794 125.283 166.904 125.67 166.177 126.443C165.458 127.217 165.021 128.256 164.865 129.56H172.47V129.408C172.431 128.189 172.083 127.197 171.427 126.432C170.771 125.666 169.911 125.283 168.849 125.283ZM182.934 125.517C182.637 125.463 182.321 125.435 181.985 125.435C181.11 125.435 180.368 125.682 179.759 126.174C179.157 126.658 178.727 127.365 178.47 128.295V137.002H177.075V124.322H178.446L178.47 126.338C179.212 124.838 180.403 124.088 182.044 124.088C182.434 124.088 182.743 124.139 182.97 124.24L182.934 125.517ZM192.683 128.26L193.515 119.939H202.047V121.24H194.723L194.125 127.006C195.039 126.381 196.109 126.068 197.336 126.068C198.875 126.068 200.101 126.568 201.015 127.568C201.93 128.568 202.387 129.9 202.387 131.564C202.387 133.361 201.941 134.756 201.051 135.748C200.16 136.74 198.906 137.236 197.289 137.236C195.805 137.236 194.601 136.822 193.68 135.994C192.758 135.166 192.23 134.006 192.098 132.514H193.445C193.578 133.678 193.973 134.56 194.629 135.162C195.285 135.756 196.172 136.053 197.289 136.053C198.508 136.053 199.426 135.666 200.043 134.892C200.668 134.119 200.98 133.017 200.98 131.588C200.98 130.338 200.633 129.318 199.937 128.529C199.242 127.74 198.293 127.346 197.09 127.346C196.426 127.346 195.848 127.432 195.355 127.603C194.863 127.767 194.344 128.092 193.797 128.576L192.683 128.26ZM218.394 134.974C217.894 135.685 217.109 136.24 216.038 136.639C214.976 137.037 213.785 137.236 212.464 137.236C211.128 137.236 209.941 136.916 208.902 136.275C207.863 135.635 207.058 134.728 206.488 133.557C205.917 132.385 205.628 131.041 205.62 129.525V127.369C205.62 125.002 206.218 123.135 207.413 121.767C208.609 120.392 210.214 119.705 212.23 119.705C213.988 119.705 215.402 120.154 216.472 121.053C217.542 121.943 218.179 123.174 218.382 124.744H216.941C216.73 123.494 216.218 122.549 215.406 121.908C214.601 121.26 213.546 120.935 212.242 120.935C210.648 120.935 209.386 121.502 208.456 122.635C207.527 123.767 207.062 125.365 207.062 127.428V129.443C207.062 130.74 207.281 131.889 207.718 132.889C208.163 133.881 208.796 134.65 209.617 135.197C210.445 135.744 211.394 136.017 212.464 136.017C213.706 136.017 214.773 135.822 215.663 135.432C216.242 135.174 216.671 134.873 216.952 134.529V130.123H212.37V128.904H218.394V134.974Z" fill="#1E1E1E"/>
<path d="M109 96.2831C135.51 96.2831 157 74.7928 157 48.2831C157 21.7734 135.51 0.283081 109 0.283081C82.4903 0.283081 61 21.7734 61 48.2831C61 74.7928 82.4903 96.2831 109 96.2831Z" fill="url(#paint0_linear)"/>
<path d="M109 96.2831C135.51 96.2831 157 74.7928 157 48.2831C157 21.7734 135.51 0.283081 109 0.283081C82.4903 0.283081 61 21.7734 61 48.2831C61 74.7928 82.4903 96.2831 109 96.2831Z" fill="url(#paint1_linear)"/>
<path d="M92.6142 71.2973C91.8694 71.2973 91.1245 70.9663 90.628 70.4697C90.1314 69.9732 89.8004 69.2283 89.8004 68.4835V46.5525C89.8004 44.9801 91.0418 43.7387 92.6142 43.7387C94.1866 43.7387 95.428 44.9801 95.428 46.5525V65.6697H123.731V46.5525C123.731 45.8076 124.062 45.0628 124.559 44.5663C125.056 44.0697 125.8 43.7387 126.545 43.7387H131.18L109.58 25.6973L83.6763 47.2973C82.4349 48.2904 80.697 48.1249 79.7038 46.9663C78.7107 45.7249 78.8763 43.987 80.0349 42.9939L107.759 19.9042C108.835 18.9938 110.325 18.9938 111.4 19.9042L139.125 42.9939C139.787 43.5732 140.118 44.318 140.118 45.1456V46.6352C140.118 48.2076 138.876 49.449 137.304 49.449H129.442V68.5663C129.442 69.3111 129.111 70.0559 128.614 70.5525C128.118 71.049 127.373 71.3801 126.628 71.3801H92.6142V71.2973Z" fill="white"/>
<defs>
<linearGradient id="paint0_linear" x1="109" y1="96.1056" x2="109" y2="-3.52704" gradientUnits="userSpaceOnUse">
<stop stop-color="#4CB648"/>
<stop offset="0.3033" stop-color="#39B24A"/>
<stop offset="0.9171" stop-color="#07A750"/>
<stop offset="1" stop-color="#00A551"/>
</linearGradient>
<linearGradient id="paint1_linear" x1="109" y1="96.1056" x2="109" y2="-3.52704" gradientUnits="userSpaceOnUse">
<stop stop-color="#4CB648"/>
<stop offset="0.3033" stop-color="#39B24A"/>
<stop offset="0.9171" stop-color="#07A750"/>
<stop offset="1" stop-color="#00A551"/>
</linearGradient>
</defs>
</svg>
