<svg width="22" height="24" viewBox="0 0 22 24" fill="none" xmlns="http://www.w3.org/2000/svg">
    <path d="M2.45742 3.45913V23.7981C1.56252 23.7981 0.830322 23.0659 0.830322 22.171V1.83203C0.830322 3.45913 2.45742 3.45913 2.45742 3.45913Z" fill="#80D6FA"/>
    <path d="M4.08457 1.83023V3.45733H2.45742C2.45742 3.45733 0.830322 3.45733 0.830322 1.83023V1.42346C0.830322 0.731922 1.35912 0.203125 2.05066 0.203125H21.1693C20.7218 0.203125 20.3557 0.935328 20.3557 1.83023H7.33878H4.08457ZM21.1693 3.45733H7.33878V1.83023H20.3557C20.3557 2.72513 20.7218 3.45733 21.1693 3.45733Z" fill="#AAB1BA"/>
    <path d="M21.169 3.45703V22.1689C21.169 23.0231 20.4368 23.796 19.5419 23.796H2.45714V3.45703H4.08424V6.71128L5.71134 5.08418L7.33844 6.71128V3.45703H21.169Z" fill="#80D6FA"/>
    <path d="M6.52532 14.8484H15.4745V8.33984H6.52532V14.8484Z" fill="#F2EDDA"/>
    <path d="M7.33852 3.45913V6.71339L5.71142 5.08628L4.08432 6.71339V3.45913V1.83203H7.33852V3.45913Z" fill="#FF7474"/>
     <path d="M19.5424 24H2.45769C1.48142 24 0.62718 23.1458 0.62718 22.1695V1.42374C0.62718 0.650831 1.27806 0 2.05092 0H21.1696C21.2916 0 21.373 0.0813718 21.373 0.203406C21.373 0.325439 21.2916 0.406811 21.1696 0.406811H2.05092C1.48142 0.406811 1.03399 0.854284 1.03399 1.42374V1.83051C1.03399 3.21354 2.41703 3.25425 2.45774 3.25425C2.57977 3.25425 2.66114 3.33562 2.66114 3.45766V22.1695C2.66114 22.2915 2.57977 22.3729 2.45774 22.3729C2.3357 22.3729 2.25433 22.2915 2.25433 22.1695V3.66101C1.88823 3.62035 1.35943 3.45761 1.03399 3.05085V22.1695C1.03399 22.9424 1.68482 23.5932 2.45774 23.5932H19.5425C20.3153 23.5932 20.9662 22.9424 20.9662 22.1695V3.66101H8.96619C8.84416 3.66101 8.76278 3.57964 8.76278 3.45761C8.76278 3.33557 8.84416 3.2542 8.96619 3.2542H21.1696C21.2916 3.2542 21.373 3.33557 21.373 3.45761V22.1694C21.3729 23.1458 20.5187 24 19.5424 24ZM15.4746 15.0508H6.52551C6.40348 15.0508 6.32211 14.9694 6.32211 14.8474V8.33896C6.32211 8.21693 6.40348 8.13556 6.52551 8.13556H15.4746C15.5967 8.13556 15.6781 8.21693 15.6781 8.33896V14.8474C15.6781 14.9695 15.5967 15.0508 15.4746 15.0508ZM6.72887 14.6441H15.2712V8.54237H6.72887V14.6441ZM13.034 12.6101H8.96619C8.84416 12.6101 8.76278 12.5288 8.76278 12.4067C8.76278 12.2847 8.84416 12.2033 8.96619 12.2033H13.034C13.156 12.2033 13.2374 12.2847 13.2374 12.4067C13.2374 12.5288 13.156 12.6101 13.034 12.6101ZM11.4069 10.983H8.96619C8.84416 10.983 8.76278 10.9017 8.76278 10.7796C8.76278 10.6576 8.84416 10.5762 8.96619 10.5762H11.4069C11.5289 10.5762 11.6103 10.6576 11.6103 10.7796C11.6103 10.9017 11.5289 10.983 11.4069 10.983ZM7.33904 6.91527C7.29838 6.91527 7.21701 6.8746 7.17634 6.8746L5.71194 5.4102L4.24753 6.8746C4.20687 6.91527 4.08484 6.95598 4.04413 6.91527C3.96276 6.8746 3.92209 6.79323 3.92209 6.71186V2.03391H2.4984C2.37636 2.03391 2.29499 1.95254 2.29499 1.83051C2.29499 1.70847 2.37636 1.6271 2.4984 1.6271H4.1255C4.24753 1.6271 4.3289 1.70847 4.3289 1.83051V6.22372L5.58991 4.96272C5.67128 4.88135 5.79331 4.88135 5.87463 4.96272L7.13563 6.22372V1.83051C7.13563 1.70847 7.21701 1.6271 7.33904 1.6271H20.356C20.478 1.6271 20.5594 1.70847 20.5594 1.83051C20.5594 1.95254 20.478 2.03391 20.356 2.03391H7.54245V6.71186C7.54245 6.79323 7.50178 6.87456 7.42041 6.91527C7.37975 6.91527 7.37975 6.91527 7.33904 6.91527Z" fill="#51565F"/>
</svg>
