<svg width="199" height="56" viewBox="0 0 199 56" fill="none" xmlns="http://www.w3.org/2000/svg">
<path d="M88.7383 23.2344C87.6602 23.2344 86.6836 22.9688 85.8086 22.4375C84.9414 21.9062 84.2656 21.168 83.7812 20.2227C83.2969 19.2695 83.0547 18.2031 83.0547 17.0234V16.5195C83.0547 15.3008 83.2891 14.2031 83.7578 13.2266C84.2344 12.25 84.8945 11.4844 85.7383 10.9297C86.582 10.3672 87.4961 10.0859 88.4805 10.0859C90.0195 10.0859 91.2383 10.6133 92.1367 11.668C93.043 12.7148 93.4961 14.1484 93.4961 15.9688V16.7539H84.4492V17.0234C84.4492 18.4609 84.8594 19.6602 85.6797 20.6211C86.5078 21.5742 87.5469 22.0508 88.7969 22.0508C89.5469 22.0508 90.207 21.9141 90.7773 21.6406C91.3555 21.3672 91.8789 20.9297 92.3477 20.3281L93.2266 20.9961C92.1953 22.4883 90.6992 23.2344 88.7383 23.2344ZM88.4805 11.2812C87.4258 11.2812 86.5352 11.668 85.8086 12.4414C85.0898 13.2148 84.6523 14.2539 84.4961 15.5586H92.1016V15.4062C92.0625 14.1875 91.7148 13.1953 91.0586 12.4297C90.4023 11.6641 89.543 11.2812 88.4805 11.2812ZM99.2078 21.7812H107.634V23H97.7547V5.9375H99.2078V21.7812ZM116.193 23.2344C115.115 23.2344 114.138 22.9688 113.263 22.4375C112.396 21.9062 111.72 21.168 111.236 20.2227C110.752 19.2695 110.509 18.2031 110.509 17.0234V16.5195C110.509 15.3008 110.744 14.2031 111.212 13.2266C111.689 12.25 112.349 11.4844 113.193 10.9297C114.037 10.3672 114.951 10.0859 115.935 10.0859C117.474 10.0859 118.693 10.6133 119.591 11.668C120.498 12.7148 120.951 14.1484 120.951 15.9688V16.7539H111.904V17.0234C111.904 18.4609 112.314 19.6602 113.134 20.6211C113.962 21.5742 115.002 22.0508 116.252 22.0508C117.002 22.0508 117.662 21.9141 118.232 21.6406C118.81 21.3672 119.334 20.9297 119.802 20.3281L120.681 20.9961C119.65 22.4883 118.154 23.2344 116.193 23.2344ZM115.935 11.2812C114.88 11.2812 113.99 11.668 113.263 12.4414C112.545 13.2148 112.107 14.2539 111.951 15.5586H119.556V15.4062C119.517 14.1875 119.17 13.1953 118.513 12.4297C117.857 11.6641 116.998 11.2812 115.935 11.2812ZM132.885 23C132.745 22.6016 132.655 22.0117 132.616 21.2305C132.123 21.8711 131.495 22.3672 130.729 22.7188C129.971 23.0625 129.166 23.2344 128.315 23.2344C127.096 23.2344 126.108 22.8945 125.35 22.2148C124.6 21.5352 124.225 20.6758 124.225 19.6367C124.225 18.4023 124.737 17.4258 125.76 16.707C126.791 15.9883 128.225 15.6289 130.061 15.6289H132.604V14.1875C132.604 13.2812 132.323 12.5703 131.76 12.0547C131.205 11.5312 130.393 11.2695 129.323 11.2695C128.346 11.2695 127.537 11.5195 126.897 12.0195C126.256 12.5195 125.936 13.1211 125.936 13.8242L124.53 13.8125C124.53 12.8047 124.998 11.9336 125.936 11.1992C126.873 10.457 128.026 10.0859 129.393 10.0859C130.807 10.0859 131.92 10.4414 132.733 11.1523C133.553 11.8555 133.975 12.8398 133.998 14.1055V20.1055C133.998 21.332 134.127 22.25 134.385 22.8594V23H132.885ZM128.479 21.9922C129.416 21.9922 130.252 21.7656 130.987 21.3125C131.729 20.8594 132.268 20.2539 132.604 19.4961V16.707H130.096C128.698 16.7227 127.604 16.9805 126.815 17.4805C126.026 17.9727 125.631 18.6523 125.631 19.5195C125.631 20.2305 125.893 20.8203 126.416 21.2891C126.948 21.7578 127.635 21.9922 128.479 21.9922ZM144.808 11.5156C144.511 11.4609 144.195 11.4336 143.859 11.4336C142.984 11.4336 142.241 11.6797 141.632 12.1719C141.03 12.6562 140.601 13.3633 140.343 14.293V23H138.948V10.3203H140.32L140.343 12.3359C141.085 10.8359 142.277 10.0859 143.917 10.0859C144.308 10.0859 144.616 10.1367 144.843 10.2383L144.808 11.5156ZM149.57 10.3203L149.617 12.4883C150.094 11.707 150.688 11.1133 151.398 10.707C152.109 10.293 152.895 10.0859 153.754 10.0859C155.113 10.0859 156.125 10.4688 156.789 11.2344C157.453 12 157.789 13.1484 157.797 14.6797V23H156.402V14.668C156.395 13.5352 156.152 12.6914 155.676 12.1367C155.207 11.582 154.453 11.3047 153.414 11.3047C152.547 11.3047 151.777 11.5781 151.105 12.125C150.441 12.6641 149.949 13.3945 149.629 14.3164V23H148.234V10.3203H149.57ZM164.2 23H162.794V10.3203H164.2V23ZM162.548 6.65234C162.548 6.38672 162.634 6.16406 162.805 5.98438C162.977 5.79688 163.212 5.70312 163.509 5.70312C163.805 5.70312 164.04 5.79688 164.212 5.98438C164.391 6.16406 164.481 6.38672 164.481 6.65234C164.481 6.91797 164.391 7.14063 164.212 7.32031C164.04 7.5 163.805 7.58984 163.509 7.58984C163.212 7.58984 162.977 7.5 162.805 7.32031C162.634 7.14063 162.548 6.91797 162.548 6.65234ZM170.556 10.3203L170.603 12.4883C171.08 11.707 171.673 11.1133 172.384 10.707C173.095 10.293 173.88 10.0859 174.74 10.0859C176.099 10.0859 177.111 10.4688 177.775 11.2344C178.439 12 178.775 13.1484 178.783 14.6797V23H177.388V14.668C177.38 13.5352 177.138 12.6914 176.662 12.1367C176.193 11.582 175.439 11.3047 174.4 11.3047C173.533 11.3047 172.763 11.5781 172.091 12.125C171.427 12.6641 170.935 13.3945 170.615 14.3164V23H169.22V10.3203H170.556ZM183.053 16.543C183.053 14.5586 183.491 12.9883 184.366 11.832C185.248 10.668 186.444 10.0859 187.952 10.0859C189.678 10.0859 190.991 10.7734 191.889 12.1484L191.959 10.3203H193.272V22.7422C193.272 24.375 192.815 25.668 191.901 26.6211C190.987 27.5742 189.748 28.0508 188.186 28.0508C187.303 28.0508 186.459 27.8516 185.655 27.4531C184.858 27.0625 184.229 26.5391 183.768 25.8828L184.553 25.0391C185.545 26.2578 186.725 26.8672 188.092 26.8672C189.264 26.8672 190.178 26.5195 190.834 25.8242C191.491 25.1367 191.83 24.1797 191.854 22.9531V21.3594C190.955 22.6094 189.647 23.2344 187.928 23.2344C186.459 23.2344 185.28 22.6484 184.389 21.4766C183.498 20.3047 183.053 18.7227 183.053 16.7305V16.543ZM184.471 16.7891C184.471 18.4062 184.795 19.6836 185.444 20.6211C186.092 21.5508 187.006 22.0156 188.186 22.0156C189.912 22.0156 191.135 21.2422 191.854 19.6953V13.8008C191.526 12.9883 191.053 12.3711 190.436 11.9492C189.819 11.5195 189.077 11.3047 188.209 11.3047C187.03 11.3047 186.112 11.7695 185.455 12.6992C184.799 13.6211 184.471 14.9844 184.471 16.7891ZM93.8125 46.8047C93.8125 45.8594 93.4805 45.1133 92.8164 44.5664C92.1523 44.0117 90.9375 43.4883 89.1719 42.9961C87.4062 42.4961 86.1172 41.9531 85.3047 41.3672C84.1484 40.5391 83.5703 39.4531 83.5703 38.1094C83.5703 36.8047 84.1055 35.7461 85.1758 34.9336C86.2539 34.1133 87.6289 33.7031 89.3008 33.7031C90.4336 33.7031 91.4453 33.9219 92.3359 34.3594C93.2344 34.7969 93.9297 35.4062 94.4219 36.1875C94.9141 36.9688 95.1602 37.8398 95.1602 38.8008H93.707C93.707 37.6367 93.3086 36.7031 92.5117 36C91.7148 35.2891 90.6445 34.9336 89.3008 34.9336C87.9961 34.9336 86.957 35.2266 86.1836 35.8125C85.4102 36.3906 85.0234 37.1484 85.0234 38.0859C85.0234 38.9531 85.3711 39.6602 86.0664 40.207C86.7617 40.7539 87.875 41.2383 89.4062 41.6602C90.9375 42.0742 92.0977 42.5078 92.8867 42.9609C93.6758 43.4062 94.2695 43.9414 94.668 44.5664C95.0664 45.1914 95.2656 45.9297 95.2656 46.7812C95.2656 48.125 94.7266 49.2031 93.6484 50.0156C92.5781 50.8281 91.1641 51.2344 89.4062 51.2344C88.2031 51.2344 87.0977 51.0195 86.0898 50.5898C85.0898 50.1602 84.3281 49.5586 83.8047 48.7852C83.2891 48.0117 83.0312 47.125 83.0312 46.125H84.4727C84.4727 47.3281 84.9219 48.2773 85.8203 48.9727C86.7188 49.668 87.9141 50.0156 89.4062 50.0156C90.7344 50.0156 91.8008 49.7227 92.6055 49.1367C93.4102 48.5508 93.8125 47.7734 93.8125 46.8047ZM104.165 51.2344C103.087 51.2344 102.11 50.9688 101.235 50.4375C100.368 49.9062 99.6922 49.168 99.2078 48.2227C98.7234 47.2695 98.4812 46.2031 98.4812 45.0234V44.5195C98.4812 43.3008 98.7156 42.2031 99.1844 41.2266C99.6609 40.25 100.321 39.4844 101.165 38.9297C102.009 38.3672 102.923 38.0859 103.907 38.0859C105.446 38.0859 106.665 38.6133 107.563 39.668C108.47 40.7148 108.923 42.1484 108.923 43.9688V44.7539H99.8758V45.0234C99.8758 46.4609 100.286 47.6602 101.106 48.6211C101.934 49.5742 102.973 50.0508 104.223 50.0508C104.973 50.0508 105.634 49.9141 106.204 49.6406C106.782 49.3672 107.305 48.9297 107.774 48.3281L108.653 48.9961C107.622 50.4883 106.126 51.2344 104.165 51.2344ZM103.907 39.2812C102.852 39.2812 101.962 39.668 101.235 40.4414C100.516 41.2148 100.079 42.2539 99.9227 43.5586H107.528V43.4062C107.489 42.1875 107.141 41.1953 106.485 40.4297C105.829 39.6641 104.97 39.2812 103.907 39.2812ZM118.712 39.5156C118.416 39.4609 118.099 39.4336 117.763 39.4336C116.888 39.4336 116.146 39.6797 115.537 40.1719C114.935 40.6562 114.505 41.3633 114.248 42.293V51H112.853V38.3203H114.224L114.248 40.3359C114.99 38.8359 116.181 38.0859 117.822 38.0859C118.212 38.0859 118.521 38.1367 118.748 38.2383L118.712 39.5156ZM126.299 49.0664L130.155 38.3203H131.596L126.862 51H125.725L120.967 38.3203H122.409L126.299 49.0664ZM139.851 51.2344C138.773 51.2344 137.796 50.9688 136.921 50.4375C136.054 49.9062 135.378 49.168 134.894 48.2227C134.409 47.2695 134.167 46.2031 134.167 45.0234V44.5195C134.167 43.3008 134.402 42.2031 134.87 41.2266C135.347 40.25 136.007 39.4844 136.851 38.9297C137.695 38.3672 138.609 38.0859 139.593 38.0859C141.132 38.0859 142.351 38.6133 143.249 39.668C144.155 40.7148 144.609 42.1484 144.609 43.9688V44.7539H135.562V45.0234C135.562 46.4609 135.972 47.6602 136.792 48.6211C137.62 49.5742 138.659 50.0508 139.909 50.0508C140.659 50.0508 141.32 49.9141 141.89 49.6406C142.468 49.3672 142.991 48.9297 143.46 48.3281L144.339 48.9961C143.308 50.4883 141.812 51.2344 139.851 51.2344ZM139.593 39.2812C138.538 39.2812 137.648 39.668 136.921 40.4414C136.202 41.2148 135.765 42.2539 135.609 43.5586H143.214V43.4062C143.175 42.1875 142.827 41.1953 142.171 40.4297C141.515 39.6641 140.655 39.2812 139.593 39.2812ZM154.398 39.5156C154.102 39.4609 153.785 39.4336 153.449 39.4336C152.574 39.4336 151.832 39.6797 151.223 40.1719C150.621 40.6562 150.191 41.3633 149.934 42.293V51H148.539V38.3203H149.91L149.934 40.3359C150.676 38.8359 151.867 38.0859 153.508 38.0859C153.898 38.0859 154.207 38.1367 154.434 38.2383L154.398 39.5156ZM165.588 42.2578L166.42 33.9375H174.951V35.2383H167.627L167.029 41.0039C167.943 40.3789 169.013 40.0664 170.24 40.0664C171.779 40.0664 173.005 40.5664 173.92 41.5664C174.834 42.5664 175.291 43.8984 175.291 45.5625C175.291 47.3594 174.845 48.7539 173.955 49.7461C173.064 50.7383 171.81 51.2344 170.193 51.2344C168.709 51.2344 167.505 50.8203 166.584 49.9922C165.662 49.1641 165.134 48.0039 165.002 46.5117H166.349C166.482 47.6758 166.877 48.5586 167.533 49.1602C168.189 49.7539 169.076 50.0508 170.193 50.0508C171.412 50.0508 172.33 49.6641 172.947 48.8906C173.572 48.1172 173.884 47.0156 173.884 45.5859C173.884 44.3359 173.537 43.3164 172.841 42.5273C172.146 41.7383 171.197 41.3438 169.994 41.3438C169.33 41.3438 168.752 41.4297 168.259 41.6016C167.767 41.7656 167.248 42.0898 166.701 42.5742L165.588 42.2578ZM192.018 48.9727C191.518 49.6836 190.733 50.2383 189.662 50.6367C188.6 51.0352 187.409 51.2344 186.088 51.2344C184.752 51.2344 183.565 50.9141 182.526 50.2734C181.487 49.6328 180.682 48.7266 180.112 47.5547C179.541 46.3828 179.252 45.0391 179.245 43.5234V41.3672C179.245 39 179.842 37.1328 181.037 35.7656C182.233 34.3906 183.838 33.7031 185.854 33.7031C187.612 33.7031 189.026 34.1523 190.096 35.0508C191.166 35.9414 191.803 37.1719 192.006 38.7422H190.565C190.354 37.4922 189.842 36.5469 189.03 35.9062C188.225 35.2578 187.17 34.9336 185.866 34.9336C184.272 34.9336 183.01 35.5 182.08 36.6328C181.151 37.7656 180.686 39.3633 180.686 41.4258V43.4414C180.686 44.7383 180.905 45.8867 181.342 46.8867C181.787 47.8789 182.42 48.6484 183.241 49.1953C184.069 49.7422 185.018 50.0156 186.088 50.0156C187.33 50.0156 188.397 49.8203 189.287 49.4297C189.866 49.1719 190.295 48.8711 190.577 48.5273V44.1211H185.995V42.9023H192.018V48.9727Z" fill="#555557"/>
<path d="M28 56C43.464 56 56 43.464 56 28C56 12.536 43.464 0 28 0C12.536 0 0 12.536 0 28C0 43.464 12.536 56 28 56Z" fill="url(#paint0_linear)"/>
<path d="M28 56C43.464 56 56 43.464 56 28C56 12.536 43.464 0 28 0C12.536 0 0 12.536 0 28C0 43.464 12.536 56 28 56Z" fill="url(#paint1_linear)"/>
<path d="M18.4415 41.4208C18.007 41.4208 17.5725 41.2277 17.2828 40.938C16.9932 40.6484 16.8001 40.2139 16.8001 39.7794V26.9863C16.8001 26.0691 17.5242 25.3449 18.4415 25.3449C19.3587 25.3449 20.0828 26.0691 20.0828 26.9863V38.138H36.5932V26.9863C36.5932 26.5518 36.7863 26.1174 37.0759 25.8277C37.3656 25.538 37.8001 25.3449 38.2346 25.3449H40.938L28.338 14.8208L13.2277 27.4208C12.5035 28.0001 11.4897 27.9036 10.9104 27.2277C10.3311 26.5036 10.4277 25.4898 11.1035 24.9105L27.2759 11.4415C27.9035 10.9105 28.7725 10.9105 29.4001 11.4415L45.5725 24.9105C45.9587 25.2484 46.1518 25.6829 46.1518 26.1656V27.0346C46.1518 27.9518 45.4277 28.676 44.5104 28.676H39.9242V39.8277C39.9242 40.2622 39.7311 40.6967 39.4415 40.9863C39.1518 41.276 38.7173 41.4691 38.2828 41.4691H18.4415V41.4208Z" fill="white"/>
<defs>
<linearGradient id="paint0_linear" x1="28" y1="55.8964" x2="28" y2="-2.22257" gradientUnits="userSpaceOnUse">
<stop stop-color="#4CB648"/>
<stop offset="0.3033" stop-color="#39B24A"/>
<stop offset="0.9171" stop-color="#07A750"/>
<stop offset="1" stop-color="#00A551"/>
</linearGradient>
<linearGradient id="paint1_linear" x1="28" y1="55.8964" x2="28" y2="-2.22257" gradientUnits="userSpaceOnUse">
<stop stop-color="#4CB648"/>
<stop offset="0.3033" stop-color="#39B24A"/>
<stop offset="0.9171" stop-color="#07A750"/>
<stop offset="1" stop-color="#00A551"/>
</linearGradient>
</defs>
</svg>
